<svg class="railroad-diagram" height="101" viewBox="0 0 624.5 101" width="624.5" xmlns="http://www.w3.org/2000/svg">
<g transform="translate(.5 .5)">
<style>/* <![CDATA[ */
	svg.railroad-diagram {
		background-color:hsl(30,20%,95%);
	}
	svg.railroad-diagram path {
		stroke-width:3;
		stroke:black;
		fill:rgba(0,0,0,0);
	}
	svg.railroad-diagram text {
		font:bold 14px monospace;
		text-anchor:middle;
	}
	svg.railroad-diagram text.label{
		text-anchor:start;
	}
	svg.railroad-diagram text.comment{
		font:italic 12px monospace;
	}
	svg.railroad-diagram rect{
		stroke-width:3;
		stroke:black;
		fill:hsl(120,100%,90%);
	}
	svg.railroad-diagram rect.group-box {
		stroke: gray;
		stroke-dasharray: 10 5;
		fill: none;
	}

/* ]]> */
</style><g>
<path d="M20 30v20m10 -20v20m-10 -10h163.0"></path><text style="text-anchor:start" x="20" y="25">anonymous&#95;function</text></g><path d="M183.0 40h10"></path><g>
<path d="M193.0 40h0.0"></path><path d="M574.5 40h0.0"></path><g class="terminal ">
<path d="M193.0 40h0.0"></path><path d="M238.5 40h0.0"></path><rect height="22" rx="10" ry="10" width="45.5" x="193.0" y="29"></rect><text x="215.75" y="44">'('</text></g><path d="M238.5 40h10"></path><g>
<path d="M248.5 40h0.0"></path><path d="M371.0 40h0.0"></path><path d="M248.5 40a10 10 0 0 0 10 -10v0a10 10 0 0 1 10 -10"></path><g>
<path d="M268.5 20h82.5"></path></g><path d="M351.0 20a10 10 0 0 1 10 10v0a10 10 0 0 0 10 10"></path><path d="M248.5 40h20"></path><g>
<path d="M268.5 40h0.0"></path><path d="M351.0 40h0.0"></path><path d="M268.5 40h10"></path><g class="terminal ">
<path d="M278.5 40h0.0"></path><path d="M341.0 40h0.0"></path><rect height="22" rx="10" ry="10" width="62.5" x="278.5" y="29"></rect><text x="309.75" y="44">param</text></g><path d="M341.0 40h10"></path><path d="M278.5 40a10 10 0 0 0 -10 10v10a10 10 0 0 0 10 10"></path><g class="terminal ">
<path d="M278.5 70h8.5"></path><path d="M332.5 70h8.5"></path><rect height="22" rx="10" ry="10" width="45.5" x="287.0" y="59"></rect><text x="309.75" y="74">','</text></g><path d="M341.0 70a10 10 0 0 0 10 -10v-10a10 10 0 0 0 -10 -10"></path></g><path d="M351.0 40h20"></path></g><path d="M371.0 40h10"></path><g class="terminal ">
<path d="M381.0 40h0.0"></path><path d="M426.5 40h0.0"></path><rect height="22" rx="10" ry="10" width="45.5" x="381.0" y="29"></rect><text x="403.75" y="44">')'</text></g><path d="M426.5 40h10"></path><path d="M436.5 40h10"></path><g class="terminal ">
<path d="M446.5 40h0.0"></path><path d="M500.5 40h0.0"></path><rect height="22" rx="10" ry="10" width="54.0" x="446.5" y="29"></rect><text x="473.5" y="44">'=>'</text></g><path d="M500.5 40h10"></path><path d="M510.5 40h10"></path><g class="terminal ">
<path d="M520.5 40h0.0"></path><path d="M574.5 40h0.0"></path><rect height="22" rx="10" ry="10" width="54.0" x="520.5" y="29"></rect><text x="547.5" y="44">expr</text></g></g><path d="M574.5 40h10"></path><path d="M 584.5 40 h 20 m -10 -10 v 20 m 10 -20 v 20"></path></g></svg>