<svg class="railroad-diagram" height="101" viewBox="0 0 243.5 101" width="243.5" xmlns="http://www.w3.org/2000/svg">
<g transform="translate(.5 .5)">
<style>/* <![CDATA[ */
	svg.railroad-diagram {
		background-color:hsl(30,20%,95%);
	}
	svg.railroad-diagram path {
		stroke-width:3;
		stroke:black;
		fill:rgba(0,0,0,0);
	}
	svg.railroad-diagram text {
		font:bold 14px monospace;
		text-anchor:middle;
	}
	svg.railroad-diagram text.label{
		text-anchor:start;
	}
	svg.railroad-diagram text.comment{
		font:italic 12px monospace;
	}
	svg.railroad-diagram rect{
		stroke-width:3;
		stroke:black;
		fill:hsl(120,100%,90%);
	}
	svg.railroad-diagram rect.group-box {
		stroke: gray;
		stroke-dasharray: 10 5;
		fill: none;
	}

/* ]]> */
</style><g>
<path d="M20 30v20m10 -20v20m-10 -10h78.0"></path><text style="text-anchor:start" x="20" y="25">arg&#95;list</text></g><g>
<path d="M98.0 40h0.0"></path><path d="M203.5 40h0.0"></path><path d="M98.0 40a10 10 0 0 0 10 -10v0a10 10 0 0 1 10 -10"></path><g>
<path d="M118.0 20h65.5"></path></g><path d="M183.5 20a10 10 0 0 1 10 10v0a10 10 0 0 0 10 10"></path><path d="M98.0 40h20"></path><g>
<path d="M118.0 40h0.0"></path><path d="M183.5 40h0.0"></path><path d="M118.0 40h10"></path><g class="terminal ">
<path d="M128.0 40h0.0"></path><path d="M173.5 40h0.0"></path><rect height="22" rx="10" ry="10" width="45.5" x="128.0" y="29"></rect><text x="150.75" y="44">arg</text></g><path d="M173.5 40h10"></path><path d="M128.0 40a10 10 0 0 0 -10 10v10a10 10 0 0 0 10 10"></path><g class="terminal ">
<path d="M128.0 70h0.0"></path><path d="M173.5 70h0.0"></path><rect height="22" rx="10" ry="10" width="45.5" x="128.0" y="59"></rect><text x="150.75" y="74">','</text></g><path d="M173.5 70a10 10 0 0 0 10 -10v-10a10 10 0 0 0 -10 -10"></path></g><path d="M183.5 40h20"></path></g><path d="M 203.5 40 h 20 m -10 -10 v 20 m 10 -20 v 20"></path></g></svg>