<svg class="railroad-diagram" height="71" viewBox="0 0 492.0 71" width="492.0" xmlns="http://www.w3.org/2000/svg" xmlns:xlink="http://www.w3.org/1999/xlink">
<g transform="translate(.5 .5)">
<style>/* <![CDATA[ */
	svg.railroad-diagram {
		background-color:hsl(30,20%,95%);
	}
	svg.railroad-diagram path {
		stroke-width:3;
		stroke:black;
		fill:rgba(0,0,0,0);
	}
	svg.railroad-diagram text {
		font:bold 14px monospace;
		text-anchor:middle;
	}
	svg.railroad-diagram text.label{
		text-anchor:start;
	}
	svg.railroad-diagram text.comment{
		font:italic 12px monospace;
	}
	svg.railroad-diagram rect{
		stroke-width:3;
		stroke:black;
		fill:hsl(120,100%,90%);
	}
	svg.railroad-diagram rect.group-box {
		stroke: gray;
		stroke-dasharray: 10 5;
		fill: none;
	}

/* ]]> */
</style><g>
<path d="M20 30v20m10 -20v20m-10 -10h137.5"></path><text style="text-anchor:start" x="20" y="25">at&#95;object&#95;assoc</text></g><path d="M157.5 40h10"></path><g>
<path d="M167.5 40h0.0"></path><path d="M442.0 40h0.0"></path><g class="terminal ">
<path d="M167.5 40h0.0"></path><path d="M272.5 40h0.0"></path><rect height="22" rx="10" ry="10" width="105.0" x="167.5" y="29"></rect><text x="220.0" y="44">object&#95;key</text></g><path d="M272.5 40h10"></path><g>
<path d="M282.5 40h0.0"></path><path d="M442.0 40h0.0"></path><path d="M282.5 40a10 10 0 0 0 10 -10v0a10 10 0 0 1 10 -10"></path><g>
<path d="M302.5 20h119.5"></path></g><path d="M422.0 20a10 10 0 0 1 10 10v0a10 10 0 0 0 10 10"></path><path d="M282.5 40h20"></path><g>
<path d="M302.5 40h0.0"></path><path d="M422.0 40h0.0"></path><g class="terminal ">
<path d="M302.5 40h0.0"></path><path d="M348.0 40h0.0"></path><rect height="22" rx="10" ry="10" width="45.5" x="302.5" y="29"></rect><text x="325.25" y="44">':'</text></g><path d="M348.0 40h10"></path><path d="M358.0 40h10"></path><g class="terminal ">
<path d="M368.0 40h0.0"></path><path d="M422.0 40h0.0"></path><rect height="22" rx="10" ry="10" width="54.0" x="368.0" y="29"></rect><text x="395.0" y="44">expr</text></g></g><path d="M422.0 40h20"></path></g></g><path d="M442.0 40h10"></path><path d="M 452.0 40 h 20 m -10 -10 v 20 m 10 -20 v 20"></path></g></svg>