<svg class="railroad-diagram" height="92" viewBox="0 0 490.5 92" width="490.5" xmlns="http://www.w3.org/2000/svg" xmlns:xlink="http://www.w3.org/1999/xlink">
<g transform="translate(.5 .5)">
<style>/* <![CDATA[ */
	svg.railroad-diagram {
		background-color:hsl(30,20%,95%);
	}
	svg.railroad-diagram path {
		stroke-width:3;
		stroke:black;
		fill:rgba(0,0,0,0);
	}
	svg.railroad-diagram text {
		font:bold 14px monospace;
		text-anchor:middle;
	}
	svg.railroad-diagram text.label{
		text-anchor:start;
	}
	svg.railroad-diagram text.comment{
		font:italic 12px monospace;
	}
	svg.railroad-diagram rect{
		stroke-width:3;
		stroke:black;
		fill:hsl(120,100%,90%);
	}
	svg.railroad-diagram rect.group-box {
		stroke: gray;
		stroke-dasharray: 10 5;
		fill: none;
	}

/* ]]> */
</style><g>
<path d="M20 21v20m10 -20v20m-10 -10h137.5"></path><text style="text-anchor:start" x="20" y="16">binding&#95;pattern</text></g><g>
<path d="M157.5 31h0.0"></path><path d="M450.5 31h0.0"></path><path d="M157.5 31h20"></path><g>
<path d="M177.5 31h0.0"></path><path d="M430.5 31h0.0"></path><g class="terminal ">
<path d="M177.5 31h0.0"></path><path d="M214.5 31h0.0"></path><rect height="22" rx="10" ry="10" width="37.0" x="177.5" y="20"></rect><text x="196.0" y="35">id</text></g><path d="M214.5 31h10"></path><path d="M224.5 31h10"></path><g class="terminal ">
<path d="M234.5 31h0.0"></path><path d="M280.0 31h0.0"></path><rect height="22" rx="10" ry="10" width="45.5" x="234.5" y="20"></rect><text x="257.25" y="35">'@'</text></g><path d="M280.0 31h10"></path><path d="M290.0 31h10"></path><g class="terminal ">
<path d="M300.0 31h0.0"></path><path d="M430.5 31h0.0"></path><rect height="22" rx="10" ry="10" width="130.5" x="300.0" y="20"></rect><text x="365.25" y="35">value&#95;pattern</text></g></g><path d="M430.5 31h20"></path><path d="M157.5 31a10 10 0 0 1 10 10v10a10 10 0 0 0 10 10"></path><g class="terminal ">
<path d="M177.5 61h61.25"></path><path d="M369.25 61h61.25"></path><rect height="22" rx="10" ry="10" width="130.5" x="238.75" y="50"></rect><text x="304.0" y="65">value&#95;pattern</text></g><path d="M430.5 61a10 10 0 0 0 10 -10v-10a10 10 0 0 1 10 -10"></path></g><path d="M 450.5 31 h 20 m -10 -10 v 20 m 10 -20 v 20"></path></g></svg>