<svg class="railroad-diagram" height="109" viewBox="0 0 579.5 109" width="579.5" xmlns="http://www.w3.org/2000/svg" xmlns:xlink="http://www.w3.org/1999/xlink">
<g transform="translate(.5 .5)">
<style>/* <![CDATA[ */
	svg.railroad-diagram {
		background-color:hsl(30,20%,95%);
	}
	svg.railroad-diagram path {
		stroke-width:3;
		stroke:black;
		fill:rgba(0,0,0,0);
	}
	svg.railroad-diagram text {
		font:bold 14px monospace;
		text-anchor:middle;
	}
	svg.railroad-diagram text.label{
		text-anchor:start;
	}
	svg.railroad-diagram text.comment{
		font:italic 12px monospace;
	}
	svg.railroad-diagram rect{
		stroke-width:3;
		stroke:black;
		fill:hsl(120,100%,90%);
	}
	svg.railroad-diagram rect.group-box {
		stroke: gray;
		stroke-dasharray: 10 5;
		fill: none;
	}

/* ]]> */
</style><g>
<path d="M20 30v20m10 -20v20m-10 -10h95.0"></path><text style="text-anchor:start" x="20" y="25">block&#95;expr</text></g><path d="M115.0 40h10"></path><g>
<path d="M125.0 40h0.0"></path><path d="M529.5 40h0.0"></path><g class="terminal ">
<path d="M125.0 40h0.0"></path><path d="M170.5 40h0.0"></path><rect height="22" rx="10" ry="10" width="45.5" x="125.0" y="29"></rect><text x="147.75" y="44">'{'</text></g><path d="M170.5 40h10"></path><g>
<path d="M180.5 40h0.0"></path><path d="M400.0 40h0.0"></path><path d="M180.5 40a10 10 0 0 0 10 -10v0a10 10 0 0 1 10 -10"></path><g>
<path d="M200.5 20h179.5"></path></g><path d="M380.0 20a10 10 0 0 1 10 10v0a10 10 0 0 0 10 10"></path><path d="M180.5 40h20"></path><g>
<path d="M200.5 40h0.0"></path><path d="M380.0 40h0.0"></path><path d="M200.5 40h10"></path><g>
<path d="M210.5 40h0.0"></path><path d="M370.0 40h0.0"></path><path d="M210.5 40h20"></path><g>
<path d="M230.5 40h0.0"></path><path d="M350.0 40h0.0"></path><g class="terminal ">
<path d="M230.5 40h0.0"></path><path d="M284.5 40h0.0"></path><rect height="22" rx="10" ry="10" width="54.0" x="230.5" y="29"></rect><text x="257.5" y="44">decl</text></g><path d="M284.5 40h10"></path><path d="M294.5 40h10"></path><g class="terminal ">
<path d="M304.5 40h0.0"></path><path d="M350.0 40h0.0"></path><rect height="22" rx="10" ry="10" width="45.5" x="304.5" y="29"></rect><text x="327.25" y="44">';'</text></g></g><path d="M350.0 40h20"></path><path d="M210.5 40a10 10 0 0 1 10 10v10a10 10 0 0 0 10 10"></path><g>
<path d="M230.5 70h0.0"></path><path d="M350.0 70h0.0"></path><g class="terminal ">
<path d="M230.5 70h0.0"></path><path d="M284.5 70h0.0"></path><rect height="22" rx="10" ry="10" width="54.0" x="230.5" y="59"></rect><text x="257.5" y="74">expr</text></g><path d="M284.5 70h10"></path><path d="M294.5 70h10"></path><g class="terminal ">
<path d="M304.5 70h0.0"></path><path d="M350.0 70h0.0"></path><rect height="22" rx="10" ry="10" width="45.5" x="304.5" y="59"></rect><text x="327.25" y="74">';'</text></g></g><path d="M350.0 70a10 10 0 0 0 10 -10v-10a10 10 0 0 1 10 -10"></path></g><path d="M370.0 40h10"></path><path d="M210.5 40a10 10 0 0 0 -10 10v29a10 10 0 0 0 10 10"></path><g>
<path d="M210.5 89h159.5"></path></g><path d="M370.0 89a10 10 0 0 0 10 -10v-29a10 10 0 0 0 -10 -10"></path></g><path d="M380.0 40h20"></path></g><path d="M400.0 40h10"></path><g class="terminal ">
<path d="M410.0 40h0.0"></path><path d="M464.0 40h0.0"></path><rect height="22" rx="10" ry="10" width="54.0" x="410.0" y="29"></rect><text x="437.0" y="44">expr</text></g><path d="M464.0 40h10"></path><path d="M474.0 40h10"></path><g class="terminal ">
<path d="M484.0 40h0.0"></path><path d="M529.5 40h0.0"></path><rect height="22" rx="10" ry="10" width="45.5" x="484.0" y="29"></rect><text x="506.75" y="44">'}'</text></g></g><path d="M529.5 40h10"></path><path d="M 539.5 40 h 20 m -10 -10 v 20 m 10 -20 v 20"></path></g></svg>