<svg class="railroad-diagram" height="71" viewBox="0 0 427.5 71" width="427.5" xmlns="http://www.w3.org/2000/svg" xmlns:xlink="http://www.w3.org/1999/xlink">
<g transform="translate(.5 .5)">
<style>/* <![CDATA[ */
	svg.railroad-diagram {
		background-color:hsl(30,20%,95%);
	}
	svg.railroad-diagram path {
		stroke-width:3;
		stroke:black;
		fill:rgba(0,0,0,0);
	}
	svg.railroad-diagram text {
		font:bold 14px monospace;
		text-anchor:middle;
	}
	svg.railroad-diagram text.label{
		text-anchor:start;
	}
	svg.railroad-diagram text.comment{
		font:italic 12px monospace;
	}
	svg.railroad-diagram rect{
		stroke-width:3;
		stroke:black;
		fill:hsl(120,100%,90%);
	}
	svg.railroad-diagram rect.group-box {
		stroke: gray;
		stroke-dasharray: 10 5;
		fill: none;
	}

/* ]]> */
</style><g>
<path d="M20 21v20m10 -20v20m-10 -10h180.0"></path><text style="text-anchor:start" x="20" y="16">block&#95;string&#95;literal</text></g><path d="M200.0 31h10"></path><g>
<path d="M210.0 31h0.0"></path><path d="M377.5 31h0.0"></path><g>
<path d="M210.0 31h0.0"></path><path d="M377.5 31h0.0"></path><path d="M210.0 31h10"></path><g>
<path d="M220.0 31h0.0"></path><path d="M367.5 31h0.0"></path><g class="terminal ">
<path d="M220.0 31h0.0"></path><path d="M367.5 31h0.0"></path><rect height="22" rx="10" ry="10" width="147.5" x="220.0" y="20"></rect><text x="293.75" y="35">SubBlockLiteral</text></g></g><path d="M367.5 31h10"></path><path d="M220.0 31a10 10 0 0 0 -10 10v0a10 10 0 0 0 10 10"></path><g>
<path d="M220.0 51h147.5"></path></g><path d="M367.5 51a10 10 0 0 0 10 -10v0a10 10 0 0 0 -10 -10"></path></g></g><path d="M377.5 31h10"></path><path d="M 387.5 31 h 20 m -10 -10 v 20 m 10 -20 v 20"></path></g></svg>