<svg class="railroad-diagram" height="80" viewBox="0 0 707.0 80" width="707.0" xmlns="http://www.w3.org/2000/svg" xmlns:xlink="http://www.w3.org/1999/xlink">
<g transform="translate(.5 .5)">
<style>/* <![CDATA[ */
	svg.railroad-diagram {
		background-color:hsl(30,20%,95%);
	}
	svg.railroad-diagram path {
		stroke-width:3;
		stroke:black;
		fill:rgba(0,0,0,0);
	}
	svg.railroad-diagram text {
		font:bold 14px monospace;
		text-anchor:middle;
	}
	svg.railroad-diagram text.label{
		text-anchor:start;
	}
	svg.railroad-diagram text.comment{
		font:italic 12px monospace;
	}
	svg.railroad-diagram rect{
		stroke-width:3;
		stroke:black;
		fill:hsl(120,100%,90%);
	}
	svg.railroad-diagram rect.group-box {
		stroke: gray;
		stroke-dasharray: 10 5;
		fill: none;
	}

/* ]]> */
</style><g>
<path d="M20 30v20m10 -20v20m-10 -10h95.0"></path><text style="text-anchor:start" x="20" y="25">class&#95;decl</text></g><path d="M115.0 40h10"></path><g>
<path d="M125.0 40h0.0"></path><path d="M657.0 40h0.0"></path><g class="terminal ">
<path d="M125.0 40h0.0"></path><path d="M204.5 40h0.0"></path><rect height="22" rx="10" ry="10" width="79.5" x="125.0" y="29"></rect><text x="164.75" y="44">'class'</text></g><path d="M204.5 40h10"></path><path d="M214.5 40h10"></path><g class="terminal ">
<path d="M224.5 40h0.0"></path><path d="M312.5 40h0.0"></path><rect height="22" rx="10" ry="10" width="88.0" x="224.5" y="29"></rect><text x="268.5" y="44">upper&#95;id</text></g><path d="M312.5 40h10"></path><path d="M322.5 40h10"></path><g class="terminal ">
<path d="M332.5 40h0.0"></path><path d="M378.0 40h0.0"></path><rect height="22" rx="10" ry="10" width="45.5" x="332.5" y="29"></rect><text x="355.25" y="44">'{'</text></g><path d="M378.0 40h10"></path><g>
<path d="M388.0 40h0.0"></path><path d="M601.5 40h0.0"></path><path d="M388.0 40a10 10 0 0 0 10 -10v0a10 10 0 0 1 10 -10"></path><g>
<path d="M408.0 20h173.5"></path></g><path d="M581.5 20a10 10 0 0 1 10 10v0a10 10 0 0 0 10 10"></path><path d="M388.0 40h20"></path><g>
<path d="M408.0 40h0.0"></path><path d="M581.5 40h0.0"></path><path d="M408.0 40h10"></path><g>
<path d="M418.0 40h0.0"></path><path d="M571.5 40h0.0"></path><path d="M418.0 40h20"></path><g class="terminal ">
<path d="M438.0 40h0.0"></path><path d="M551.5 40h0.0"></path><rect height="22" rx="10" ry="10" width="113.5" x="438.0" y="29"></rect><text x="494.75" y="44">class&#95;field</text></g><path d="M551.5 40h20"></path></g><path d="M571.5 40h10"></path><path d="M418.0 40a10 10 0 0 0 -10 10v0a10 10 0 0 0 10 10"></path><g>
<path d="M418.0 60h153.5"></path></g><path d="M571.5 60a10 10 0 0 0 10 -10v0a10 10 0 0 0 -10 -10"></path></g><path d="M581.5 40h20"></path></g><path d="M601.5 40h10"></path><g class="terminal ">
<path d="M611.5 40h0.0"></path><path d="M657.0 40h0.0"></path><rect height="22" rx="10" ry="10" width="45.5" x="611.5" y="29"></rect><text x="634.25" y="44">'}'</text></g></g><path d="M657.0 40h10"></path><path d="M 667.0 40 h 20 m -10 -10 v 20 m 10 -20 v 20"></path></g></svg>