<svg class="railroad-diagram" height="101" viewBox="0 0 616.0 101" width="616.0" xmlns="http://www.w3.org/2000/svg" xmlns:xlink="http://www.w3.org/1999/xlink">
<g transform="translate(.5 .5)">
<style>/* <![CDATA[ */
	svg.railroad-diagram {
		background-color:hsl(30,20%,95%);
	}
	svg.railroad-diagram path {
		stroke-width:3;
		stroke:black;
		fill:rgba(0,0,0,0);
	}
	svg.railroad-diagram text {
		font:bold 14px monospace;
		text-anchor:middle;
	}
	svg.railroad-diagram text.label{
		text-anchor:start;
	}
	svg.railroad-diagram text.comment{
		font:italic 12px monospace;
	}
	svg.railroad-diagram rect{
		stroke-width:3;
		stroke:black;
		fill:hsl(120,100%,90%);
	}
	svg.railroad-diagram rect.group-box {
		stroke: gray;
		stroke-dasharray: 10 5;
		fill: none;
	}

/* ]]> */
</style><g>
<path d="M20 30v20m10 -20v20m-10 -10h129.0"></path><text style="text-anchor:start" x="20" y="25">construct&#95;call</text></g><path d="M149.0 40h10"></path><g>
<path d="M159.0 40h0.0"></path><path d="M566.0 40h0.0"></path><g class="terminal ">
<path d="M159.0 40h0.0"></path><path d="M221.5 40h0.0"></path><rect height="22" rx="10" ry="10" width="62.5" x="159.0" y="29"></rect><text x="190.25" y="44">'new'</text></g><path d="M221.5 40h10"></path><path d="M231.5 40h10"></path><g class="terminal ">
<path d="M241.5 40h0.0"></path><path d="M329.5 40h0.0"></path><rect height="22" rx="10" ry="10" width="88.0" x="241.5" y="29"></rect><text x="285.5" y="44">upper&#95;id</text></g><path d="M329.5 40h10"></path><path d="M339.5 40h10"></path><g class="terminal ">
<path d="M349.5 40h0.0"></path><path d="M395.0 40h0.0"></path><rect height="22" rx="10" ry="10" width="45.5" x="349.5" y="29"></rect><text x="372.25" y="44">'('</text></g><path d="M395.0 40h10"></path><g>
<path d="M405.0 40h0.0"></path><path d="M510.5 40h0.0"></path><path d="M405.0 40a10 10 0 0 0 10 -10v0a10 10 0 0 1 10 -10"></path><g>
<path d="M425.0 20h65.5"></path></g><path d="M490.5 20a10 10 0 0 1 10 10v0a10 10 0 0 0 10 10"></path><path d="M405.0 40h20"></path><g>
<path d="M425.0 40h0.0"></path><path d="M490.5 40h0.0"></path><path d="M425.0 40h10"></path><g class="terminal ">
<path d="M435.0 40h0.0"></path><path d="M480.5 40h0.0"></path><rect height="22" rx="10" ry="10" width="45.5" x="435.0" y="29"></rect><text x="457.75" y="44">arg</text></g><path d="M480.5 40h10"></path><path d="M435.0 40a10 10 0 0 0 -10 10v10a10 10 0 0 0 10 10"></path><g class="terminal ">
<path d="M435.0 70h0.0"></path><path d="M480.5 70h0.0"></path><rect height="22" rx="10" ry="10" width="45.5" x="435.0" y="59"></rect><text x="457.75" y="74">','</text></g><path d="M480.5 70a10 10 0 0 0 10 -10v-10a10 10 0 0 0 -10 -10"></path></g><path d="M490.5 40h20"></path></g><path d="M510.5 40h10"></path><g class="terminal ">
<path d="M520.5 40h0.0"></path><path d="M566.0 40h0.0"></path><rect height="22" rx="10" ry="10" width="45.5" x="520.5" y="29"></rect><text x="543.25" y="44">')'</text></g></g><path d="M566.0 40h10"></path><path d="M 576.0 40 h 20 m -10 -10 v 20 m 10 -20 v 20"></path></g></svg>