<svg class="railroad-diagram" height="101" viewBox="0 0 633.0 101" width="633.0" xmlns="http://www.w3.org/2000/svg" xmlns:xlink="http://www.w3.org/1999/xlink">
<g transform="translate(.5 .5)">
<style>/* <![CDATA[ */
	svg.railroad-diagram {
		background-color:hsl(30,20%,95%);
	}
	svg.railroad-diagram path {
		stroke-width:3;
		stroke:black;
		fill:rgba(0,0,0,0);
	}
	svg.railroad-diagram text {
		font:bold 14px monospace;
		text-anchor:middle;
	}
	svg.railroad-diagram text.label{
		text-anchor:start;
	}
	svg.railroad-diagram text.comment{
		font:italic 12px monospace;
	}
	svg.railroad-diagram rect{
		stroke-width:3;
		stroke:black;
		fill:hsl(120,100%,90%);
	}
	svg.railroad-diagram rect.group-box {
		stroke: gray;
		stroke-dasharray: 10 5;
		fill: none;
	}

/* ]]> */
</style><g>
<path d="M20 30v20m10 -20v20m-10 -10h146.0"></path><text style="text-anchor:start" x="20" y="25">constructor&#95;call</text></g><path d="M166.0 40h10"></path><g>
<path d="M176.0 40h0.0"></path><path d="M583.0 40h0.0"></path><g class="terminal ">
<path d="M176.0 40h0.0"></path><path d="M238.5 40h0.0"></path><rect height="22" rx="10" ry="10" width="62.5" x="176.0" y="29"></rect><text x="207.25" y="44">'new'</text></g><path d="M238.5 40h10"></path><path d="M248.5 40h10"></path><g class="terminal ">
<path d="M258.5 40h0.0"></path><path d="M346.5 40h0.0"></path><rect height="22" rx="10" ry="10" width="88.0" x="258.5" y="29"></rect><text x="302.5" y="44">upper&#95;id</text></g><path d="M346.5 40h10"></path><path d="M356.5 40h10"></path><g class="terminal ">
<path d="M366.5 40h0.0"></path><path d="M412.0 40h0.0"></path><rect height="22" rx="10" ry="10" width="45.5" x="366.5" y="29"></rect><text x="389.25" y="44">'('</text></g><path d="M412.0 40h10"></path><g>
<path d="M422.0 40h0.0"></path><path d="M527.5 40h0.0"></path><path d="M422.0 40a10 10 0 0 0 10 -10v0a10 10 0 0 1 10 -10"></path><g>
<path d="M442.0 20h65.5"></path></g><path d="M507.5 20a10 10 0 0 1 10 10v0a10 10 0 0 0 10 10"></path><path d="M422.0 40h20"></path><g>
<path d="M442.0 40h0.0"></path><path d="M507.5 40h0.0"></path><path d="M442.0 40h10"></path><g class="terminal ">
<path d="M452.0 40h0.0"></path><path d="M497.5 40h0.0"></path><rect height="22" rx="10" ry="10" width="45.5" x="452.0" y="29"></rect><text x="474.75" y="44">arg</text></g><path d="M497.5 40h10"></path><path d="M452.0 40a10 10 0 0 0 -10 10v10a10 10 0 0 0 10 10"></path><g class="terminal ">
<path d="M452.0 70h0.0"></path><path d="M497.5 70h0.0"></path><rect height="22" rx="10" ry="10" width="45.5" x="452.0" y="59"></rect><text x="474.75" y="74">','</text></g><path d="M497.5 70a10 10 0 0 0 10 -10v-10a10 10 0 0 0 -10 -10"></path></g><path d="M507.5 40h20"></path></g><path d="M527.5 40h10"></path><g class="terminal ">
<path d="M537.5 40h0.0"></path><path d="M583.0 40h0.0"></path><rect height="22" rx="10" ry="10" width="45.5" x="537.5" y="29"></rect><text x="560.25" y="44">')'</text></g></g><path d="M583.0 40h10"></path><path d="M 593.0 40 h 20 m -10 -10 v 20 m 10 -20 v 20"></path></g></svg>