<svg class="railroad-diagram" height="71" viewBox="0 0 589.0 71" width="589.0" xmlns="http://www.w3.org/2000/svg">
<g transform="translate(.5 .5)">
<style>/* <![CDATA[ */
	svg.railroad-diagram {
		background-color:hsl(30,20%,95%);
	}
	svg.railroad-diagram path {
		stroke-width:3;
		stroke:black;
		fill:rgba(0,0,0,0);
	}
	svg.railroad-diagram text {
		font:bold 14px monospace;
		text-anchor:middle;
	}
	svg.railroad-diagram text.label{
		text-anchor:start;
	}
	svg.railroad-diagram text.comment{
		font:italic 12px monospace;
	}
	svg.railroad-diagram rect{
		stroke-width:3;
		stroke:black;
		fill:hsl(120,100%,90%);
	}
	svg.railroad-diagram rect.group-box {
		stroke: gray;
		stroke-dasharray: 10 5;
		fill: none;
	}

/* ]]> */
</style><g>
<path d="M20 30v20m10 -20v20m-10 -10h137.5"></path><text style="text-anchor:start" x="20" y="25">decl&#95;annotation</text></g><path d="M157.5 40h10"></path><g>
<path d="M167.5 40h0.0"></path><path d="M539.0 40h0.0"></path><g class="terminal ">
<path d="M167.5 40h0.0"></path><path d="M213.0 40h0.0"></path><rect height="22" rx="10" ry="10" width="45.5" x="167.5" y="29"></rect><text x="190.25" y="44">'@'</text></g><path d="M213.0 40h10"></path><path d="M223.0 40h10"></path><g class="terminal ">
<path d="M233.0 40h0.0"></path><path d="M270.0 40h0.0"></path><rect height="22" rx="10" ry="10" width="37.0" x="233.0" y="29"></rect><text x="251.5" y="44">id</text></g><path d="M270.0 40h10"></path><g>
<path d="M280.0 40h0.0"></path><path d="M539.0 40h0.0"></path><path d="M280.0 40a10 10 0 0 0 10 -10v0a10 10 0 0 1 10 -10"></path><g>
<path d="M300.0 20h219.0"></path></g><path d="M519.0 20a10 10 0 0 1 10 10v0a10 10 0 0 0 10 10"></path><path d="M280.0 40h20"></path><g>
<path d="M300.0 40h0.0"></path><path d="M519.0 40h0.0"></path><g class="terminal ">
<path d="M300.0 40h0.0"></path><path d="M345.5 40h0.0"></path><rect height="22" rx="10" ry="10" width="45.5" x="300.0" y="29"></rect><text x="322.75" y="44">'('</text></g><path d="M345.5 40h10"></path><path d="M355.5 40h10"></path><g class="terminal ">
<path d="M365.5 40h0.0"></path><path d="M453.5 40h0.0"></path><rect height="22" rx="10" ry="10" width="88.0" x="365.5" y="29"></rect><text x="409.5" y="44">arg&#95;list</text></g><path d="M453.5 40h10"></path><path d="M463.5 40h10"></path><g class="terminal ">
<path d="M473.5 40h0.0"></path><path d="M519.0 40h0.0"></path><rect height="22" rx="10" ry="10" width="45.5" x="473.5" y="29"></rect><text x="496.25" y="44">')'</text></g></g><path d="M519.0 40h20"></path></g></g><path d="M539.0 40h10"></path><path d="M 549.0 40 h 20 m -10 -10 v 20 m 10 -20 v 20"></path></g></svg>