<svg class="railroad-diagram" height="92" viewBox="0 0 291.5 92" width="291.5" xmlns="http://www.w3.org/2000/svg" xmlns:xlink="http://www.w3.org/1999/xlink">
<g transform="translate(.5 .5)">
<style>/* <![CDATA[ */
	svg.railroad-diagram {
		background-color:hsl(30,20%,95%);
	}
	svg.railroad-diagram path {
		stroke-width:3;
		stroke:black;
		fill:rgba(0,0,0,0);
	}
	svg.railroad-diagram text {
		font:bold 14px monospace;
		text-anchor:middle;
	}
	svg.railroad-diagram text.label{
		text-anchor:start;
	}
	svg.railroad-diagram text.comment{
		font:italic 12px monospace;
	}
	svg.railroad-diagram rect{
		stroke-width:3;
		stroke:black;
		fill:hsl(120,100%,90%);
	}
	svg.railroad-diagram rect.group-box {
		stroke: gray;
		stroke-dasharray: 10 5;
		fill: none;
	}

/* ]]> */
</style><g>
<path d="M20 21v20m10 -20v20m-10 -10h112.0"></path><text style="text-anchor:start" x="20" y="16">detail&#95;value</text></g><g>
<path d="M132.0 31h0.0"></path><path d="M251.5 31h0.0"></path><path d="M132.0 31h20"></path><g>
<path d="M152.0 31h0.0"></path><path d="M231.5 31h0.0"></path><g class="terminal ">
<path d="M152.0 31h0.0"></path><path d="M231.5 31h0.0"></path><rect height="22" rx="10" ry="10" width="79.5" x="152.0" y="20"></rect><text x="191.75" y="35">pattern</text></g></g><path d="M231.5 31h20"></path><path d="M132.0 31a10 10 0 0 1 10 10v10a10 10 0 0 0 10 10"></path><g>
<path d="M152.0 61h12.75"></path><path d="M218.75 61h12.75"></path><g class="terminal ">
<path d="M164.75 61h0.0"></path><path d="M218.75 61h0.0"></path><rect height="22" rx="10" ry="10" width="54.0" x="164.75" y="50"></rect><text x="191.75" y="65">expr</text></g></g><path d="M231.5 61a10 10 0 0 0 10 -10v-10a10 10 0 0 1 10 -10"></path></g><path d="M 251.5 31 h 20 m -10 -10 v 20 m 10 -20 v 20"></path></g></svg>