<svg class="railroad-diagram" height="92" viewBox="0 0 368.0 92" width="368.0" xmlns="http://www.w3.org/2000/svg" xmlns:xlink="http://www.w3.org/1999/xlink">
<g transform="translate(.5 .5)">
<style>/* <![CDATA[ */
	svg.railroad-diagram {
		background-color:hsl(30,20%,95%);
	}
	svg.railroad-diagram path {
		stroke-width:3;
		stroke:black;
		fill:rgba(0,0,0,0);
	}
	svg.railroad-diagram text {
		font:bold 14px monospace;
		text-anchor:middle;
	}
	svg.railroad-diagram text.label{
		text-anchor:start;
	}
	svg.railroad-diagram text.comment{
		font:italic 12px monospace;
	}
	svg.railroad-diagram rect{
		stroke-width:3;
		stroke:black;
		fill:hsl(120,100%,90%);
	}
	svg.railroad-diagram rect.group-box {
		stroke: gray;
		stroke-dasharray: 10 5;
		fill: none;
	}

/* ]]> */
</style><g>
<path d="M20 21v20m10 -20v20m-10 -10h78.0"></path><text style="text-anchor:start" x="20" y="16">doc&#95;node</text></g><g>
<path d="M98.0 31h0.0"></path><path d="M328.0 31h0.0"></path><path d="M98.0 31h20"></path><g class="terminal ">
<path d="M118.0 31h25.5"></path><path d="M282.5 31h25.5"></path><rect height="22" rx="10" ry="10" width="139.0" x="143.5" y="20"></rect><text x="213.0" y="35">string&#95;literal</text></g><path d="M308.0 31h20"></path><path d="M98.0 31a10 10 0 0 1 10 10v10a10 10 0 0 0 10 10"></path><g class="terminal ">
<path d="M118.0 61h0.0"></path><path d="M308.0 61h0.0"></path><rect height="22" rx="10" ry="10" width="190.0" x="118.0" y="50"></rect><text x="213.0" y="65">block&#95;string&#95;literal</text></g><path d="M308.0 61a10 10 0 0 0 10 -10v-10a10 10 0 0 1 10 -10"></path></g><path d="M 328.0 31 h 20 m -10 -10 v 20 m 10 -20 v 20"></path></g></svg>