<svg class="railroad-diagram" height="122" viewBox="0 0 408.5 122" width="408.5" xmlns="http://www.w3.org/2000/svg">
<g transform="translate(.5 .5)">
<style>/* <![CDATA[ */
	svg.railroad-diagram {
		background-color:hsl(30,20%,95%);
	}
	svg.railroad-diagram path {
		stroke-width:3;
		stroke:black;
		fill:rgba(0,0,0,0);
	}
	svg.railroad-diagram text {
		font:bold 14px monospace;
		text-anchor:middle;
	}
	svg.railroad-diagram text.label{
		text-anchor:start;
	}
	svg.railroad-diagram text.comment{
		font:italic 12px monospace;
	}
	svg.railroad-diagram rect{
		stroke-width:3;
		stroke:black;
		fill:hsl(120,100%,90%);
	}
	svg.railroad-diagram rect.group-box {
		stroke: gray;
		stroke-dasharray: 10 5;
		fill: none;
	}

/* ]]> */
</style><g>
<path d="M20 21v20m10 -20v20m-10 -10h44.0"></path><text style="text-anchor:start" x="20" y="16">expr</text></g><g>
<path d="M64.0 31h0.0"></path><path d="M368.5 31h0.0"></path><path d="M64.0 31h20"></path><g>
<path d="M84.0 31h0.0"></path><path d="M348.5 31h0.0"></path><g class="terminal ">
<path d="M84.0 31h0.0"></path><path d="M138.0 31h0.0"></path><rect height="22" rx="10" ry="10" width="54.0" x="84.0" y="20"></rect><text x="111.0" y="35">expr</text></g><path d="M138.0 31h10"></path><g>
<path d="M148.0 31h0.0"></path><path d="M250.5 31h0.0"></path><path d="M148.0 31h20"></path><g>
<path d="M168.0 31h0.0"></path><path d="M230.5 31h0.0"></path><g class="terminal ">
<path d="M168.0 31h0.0"></path><path d="M230.5 31h0.0"></path><rect height="22" rx="10" ry="10" width="62.5" x="168.0" y="20"></rect><text x="199.25" y="35">'and'</text></g></g><path d="M230.5 31h20"></path><path d="M148.0 31a10 10 0 0 1 10 10v10a10 10 0 0 0 10 10"></path><g>
<path d="M168.0 61h4.25"></path><path d="M226.25 61h4.25"></path><g class="terminal ">
<path d="M172.25 61h0.0"></path><path d="M226.25 61h0.0"></path><rect height="22" rx="10" ry="10" width="54.0" x="172.25" y="50"></rect><text x="199.25" y="65">'or'</text></g></g><path d="M230.5 61a10 10 0 0 0 10 -10v-10a10 10 0 0 1 10 -10"></path></g><path d="M250.5 31h10"></path><g class="terminal ">
<path d="M260.5 31h0.0"></path><path d="M348.5 31h0.0"></path><rect height="22" rx="10" ry="10" width="88.0" x="260.5" y="20"></rect><text x="304.5" y="35">not&#95;expr</text></g></g><path d="M348.5 31h20"></path><path d="M64.0 31a10 10 0 0 1 10 10v40a10 10 0 0 0 10 10"></path><g class="terminal ">
<path d="M84.0 91h88.25"></path><path d="M260.25 91h88.25"></path><rect height="22" rx="10" ry="10" width="88.0" x="172.25" y="80"></rect><text x="216.25" y="95">not&#95;expr</text></g><path d="M348.5 91a10 10 0 0 0 10 -10v-40a10 10 0 0 1 10 -10"></path></g><path d="M 368.5 31 h 20 m -10 -10 v 20 m 10 -20 v 20"></path></g></svg>