<svg class="railroad-diagram" height="71" viewBox="0 0 519.5 71" width="519.5" xmlns="http://www.w3.org/2000/svg">
<g transform="translate(.5 .5)">
<style>/* <![CDATA[ */
	svg.railroad-diagram {
		background-color:hsl(30,20%,95%);
	}
	svg.railroad-diagram path {
		stroke-width:3;
		stroke:black;
		fill:rgba(0,0,0,0);
	}
	svg.railroad-diagram text {
		font:bold 14px monospace;
		text-anchor:middle;
	}
	svg.railroad-diagram text.label{
		text-anchor:start;
	}
	svg.railroad-diagram text.comment{
		font:italic 12px monospace;
	}
	svg.railroad-diagram rect{
		stroke-width:3;
		stroke:black;
		fill:hsl(120,100%,90%);
	}
	svg.railroad-diagram rect.group-box {
		stroke: gray;
		stroke-dasharray: 10 5;
		fill: none;
	}

/* ]]> */
</style><g>
<path d="M20 30v20m10 -20v20m-10 -10h78.0"></path><text style="text-anchor:start" x="20" y="25">fun&#95;call</text></g><path d="M98.0 40h10"></path><g>
<path d="M108.0 40h0.0"></path><path d="M469.5 40h0.0"></path><g class="terminal ">
<path d="M108.0 40h0.0"></path><path d="M145.0 40h0.0"></path><rect height="22" rx="10" ry="10" width="37.0" x="108.0" y="29"></rect><text x="126.5" y="44">id</text></g><path d="M145.0 40h10"></path><g>
<path d="M155.0 40h0.0"></path><path d="M240.5 40h0.0"></path><path d="M155.0 40a10 10 0 0 0 10 -10v0a10 10 0 0 1 10 -10"></path><g>
<path d="M175.0 20h45.5"></path></g><path d="M220.5 20a10 10 0 0 1 10 10v0a10 10 0 0 0 10 10"></path><path d="M155.0 40h20"></path><g class="terminal ">
<path d="M175.0 40h0.0"></path><path d="M220.5 40h0.0"></path><rect height="22" rx="10" ry="10" width="45.5" x="175.0" y="29"></rect><text x="197.75" y="44">'?'</text></g><path d="M220.5 40h20"></path></g><path d="M240.5 40h10"></path><g class="terminal ">
<path d="M250.5 40h0.0"></path><path d="M296.0 40h0.0"></path><rect height="22" rx="10" ry="10" width="45.5" x="250.5" y="29"></rect><text x="273.25" y="44">'('</text></g><path d="M296.0 40h10"></path><path d="M306.0 40h10"></path><g class="terminal ">
<path d="M316.0 40h0.0"></path><path d="M404.0 40h0.0"></path><rect height="22" rx="10" ry="10" width="88.0" x="316.0" y="29"></rect><text x="360.0" y="44">arg&#95;list</text></g><path d="M404.0 40h10"></path><path d="M414.0 40h10"></path><g class="terminal ">
<path d="M424.0 40h0.0"></path><path d="M469.5 40h0.0"></path><rect height="22" rx="10" ry="10" width="45.5" x="424.0" y="29"></rect><text x="446.75" y="44">')'</text></g></g><path d="M469.5 40h10"></path><path d="M 479.5 40 h 20 m -10 -10 v 20 m 10 -20 v 20"></path></g></svg>