<svg class="railroad-diagram" height="71" viewBox="0 0 680.0 71" width="680.0" xmlns="http://www.w3.org/2000/svg" xmlns:xlink="http://www.w3.org/1999/xlink">
<g transform="translate(.5 .5)">
<style>/* <![CDATA[ */
	svg.railroad-diagram {
		background-color:hsl(30,20%,95%);
	}
	svg.railroad-diagram path {
		stroke-width:3;
		stroke:black;
		fill:rgba(0,0,0,0);
	}
	svg.railroad-diagram text {
		font:bold 14px monospace;
		text-anchor:middle;
	}
	svg.railroad-diagram text.label{
		text-anchor:start;
	}
	svg.railroad-diagram text.comment{
		font:italic 12px monospace;
	}
	svg.railroad-diagram rect{
		stroke-width:3;
		stroke:black;
		fill:hsl(120,100%,90%);
	}
	svg.railroad-diagram rect.group-box {
		stroke: gray;
		stroke-dasharray: 10 5;
		fill: none;
	}

/* ]]> */
</style><g>
<path d="M20 30v20m10 -20v20m-10 -10h112.0"></path><text style="text-anchor:start" x="20" y="25">if&#95;then&#95;else</text></g><path d="M132.0 40h10"></path><g>
<path d="M142.0 40h0.0"></path><path d="M630.0 40h0.0"></path><g class="terminal ">
<path d="M142.0 40h0.0"></path><path d="M196.0 40h0.0"></path><rect height="22" rx="10" ry="10" width="54.0" x="142.0" y="29"></rect><text x="169.0" y="44">'if'</text></g><path d="M196.0 40h10"></path><path d="M206.0 40h10"></path><g class="terminal ">
<path d="M216.0 40h0.0"></path><path d="M270.0 40h0.0"></path><rect height="22" rx="10" ry="10" width="54.0" x="216.0" y="29"></rect><text x="243.0" y="44">expr</text></g><path d="M270.0 40h10"></path><path d="M280.0 40h10"></path><g class="terminal ">
<path d="M290.0 40h0.0"></path><path d="M361.0 40h0.0"></path><rect height="22" rx="10" ry="10" width="71.0" x="290.0" y="29"></rect><text x="325.5" y="44">'then'</text></g><path d="M361.0 40h10"></path><path d="M371.0 40h10"></path><g class="terminal ">
<path d="M381.0 40h0.0"></path><path d="M435.0 40h0.0"></path><rect height="22" rx="10" ry="10" width="54.0" x="381.0" y="29"></rect><text x="408.0" y="44">expr</text></g><path d="M435.0 40h10"></path><g>
<path d="M445.0 40h0.0"></path><path d="M630.0 40h0.0"></path><path d="M445.0 40a10 10 0 0 0 10 -10v0a10 10 0 0 1 10 -10"></path><g>
<path d="M465.0 20h145.0"></path></g><path d="M610.0 20a10 10 0 0 1 10 10v0a10 10 0 0 0 10 10"></path><path d="M445.0 40h20"></path><g>
<path d="M465.0 40h0.0"></path><path d="M610.0 40h0.0"></path><g class="terminal ">
<path d="M465.0 40h0.0"></path><path d="M536.0 40h0.0"></path><rect height="22" rx="10" ry="10" width="71.0" x="465.0" y="29"></rect><text x="500.5" y="44">'else'</text></g><path d="M536.0 40h10"></path><path d="M546.0 40h10"></path><g class="terminal ">
<path d="M556.0 40h0.0"></path><path d="M610.0 40h0.0"></path><rect height="22" rx="10" ry="10" width="54.0" x="556.0" y="29"></rect><text x="583.0" y="44">expr</text></g></g><path d="M610.0 40h20"></path></g></g><path d="M630.0 40h10"></path><path d="M 640.0 40 h 20 m -10 -10 v 20 m 10 -20 v 20"></path></g></svg>