<svg class="railroad-diagram" height="101" viewBox="0 0 374.5 101" width="374.5" xmlns="http://www.w3.org/2000/svg" xmlns:xlink="http://www.w3.org/1999/xlink">
<g transform="translate(.5 .5)">
<style>/* <![CDATA[ */
	svg.railroad-diagram {
		background-color:hsl(30,20%,95%);
	}
	svg.railroad-diagram path {
		stroke-width:3;
		stroke:black;
		fill:rgba(0,0,0,0);
	}
	svg.railroad-diagram text {
		font:bold 14px monospace;
		text-anchor:middle;
	}
	svg.railroad-diagram text.label{
		text-anchor:start;
	}
	svg.railroad-diagram text.comment{
		font:italic 12px monospace;
	}
	svg.railroad-diagram rect{
		stroke-width:3;
		stroke:black;
		fill:hsl(120,100%,90%);
	}
	svg.railroad-diagram rect.group-box {
		stroke: gray;
		stroke-dasharray: 10 5;
		fill: none;
	}

/* ]]> */
</style><g>
<path d="M20 30v20m10 -20v20m-10 -10h69.5"></path><text style="text-anchor:start" x="20" y="25">listlit</text></g><path d="M89.5 40h10"></path><g>
<path d="M99.5 40h0.0"></path><path d="M324.5 40h0.0"></path><g class="terminal ">
<path d="M99.5 40h0.0"></path><path d="M145.0 40h0.0"></path><rect height="22" rx="10" ry="10" width="45.5" x="99.5" y="29"></rect><text x="122.25" y="44">'&#91;'</text></g><path d="M145.0 40h10"></path><g>
<path d="M155.0 40h0.0"></path><path d="M269.0 40h0.0"></path><path d="M155.0 40a10 10 0 0 0 10 -10v0a10 10 0 0 1 10 -10"></path><g>
<path d="M175.0 20h74.0"></path></g><path d="M249.0 20a10 10 0 0 1 10 10v0a10 10 0 0 0 10 10"></path><path d="M155.0 40h20"></path><g>
<path d="M175.0 40h0.0"></path><path d="M249.0 40h0.0"></path><path d="M175.0 40h10"></path><g class="terminal ">
<path d="M185.0 40h0.0"></path><path d="M239.0 40h0.0"></path><rect height="22" rx="10" ry="10" width="54.0" x="185.0" y="29"></rect><text x="212.0" y="44">expr</text></g><path d="M239.0 40h10"></path><path d="M185.0 40a10 10 0 0 0 -10 10v10a10 10 0 0 0 10 10"></path><g class="terminal ">
<path d="M185.0 70h4.25"></path><path d="M234.75 70h4.25"></path><rect height="22" rx="10" ry="10" width="45.5" x="189.25" y="59"></rect><text x="212.0" y="74">','</text></g><path d="M239.0 70a10 10 0 0 0 10 -10v-10a10 10 0 0 0 -10 -10"></path></g><path d="M249.0 40h20"></path></g><path d="M269.0 40h10"></path><g class="terminal ">
<path d="M279.0 40h0.0"></path><path d="M324.5 40h0.0"></path><rect height="22" rx="10" ry="10" width="45.5" x="279.0" y="29"></rect><text x="301.75" y="44">'&#93;'</text></g></g><path d="M324.5 40h10"></path><path d="M 334.5 40 h 20 m -10 -10 v 20 m 10 -20 v 20"></path></g></svg>