<svg class="railroad-diagram" height="122" viewBox="0 0 530.5 122" width="530.5" xmlns="http://www.w3.org/2000/svg" xmlns:xlink="http://www.w3.org/1999/xlink">
<g transform="translate(.5 .5)">
<style>/* <![CDATA[ */
	svg.railroad-diagram {
		background-color:hsl(30,20%,95%);
	}
	svg.railroad-diagram path {
		stroke-width:3;
		stroke:black;
		fill:rgba(0,0,0,0);
	}
	svg.railroad-diagram text {
		font:bold 14px monospace;
		text-anchor:middle;
	}
	svg.railroad-diagram text.label{
		text-anchor:start;
	}
	svg.railroad-diagram text.comment{
		font:italic 12px monospace;
	}
	svg.railroad-diagram rect{
		stroke-width:3;
		stroke:black;
		fill:hsl(120,100%,90%);
	}
	svg.railroad-diagram rect.group-box {
		stroke: gray;
		stroke-dasharray: 10 5;
		fill: none;
	}

/* ]]> */
</style><g>
<path d="M20 21v20m10 -20v20m-10 -10h112.0"></path><text style="text-anchor:start" x="20" y="16">list&#95;pattern</text></g><path d="M132.0 31h10"></path><g>
<path d="M142.0 31h0.0"></path><path d="M480.5 31h0.0"></path><g class="terminal ">
<path d="M142.0 31h0.0"></path><path d="M187.5 31h0.0"></path><rect height="22" rx="10" ry="10" width="45.5" x="142.0" y="20"></rect><text x="164.75" y="35">'&#91;'</text></g><path d="M187.5 31h10"></path><path d="M197.5 31h10"></path><g>
<path d="M207.5 31h0.0"></path><path d="M415.0 31h0.0"></path><path d="M207.5 31h10"></path><g>
<path d="M217.5 31h0.0"></path><path d="M405.0 31h0.0"></path><path d="M217.5 31h20"></path><g class="terminal ">
<path d="M237.5 31h0.0"></path><path d="M385.0 31h0.0"></path><rect height="22" rx="10" ry="10" width="147.5" x="237.5" y="20"></rect><text x="311.25" y="35">binding&#95;pattern</text></g><path d="M385.0 31h20"></path><path d="M217.5 31a10 10 0 0 1 10 10v10a10 10 0 0 0 10 10"></path><g class="terminal ">
<path d="M237.5 61h8.5"></path><path d="M376.5 61h8.5"></path><rect height="22" rx="10" ry="10" width="130.5" x="246.0" y="50"></rect><text x="311.25" y="65">splat&#95;pattern</text></g><path d="M385.0 61a10 10 0 0 0 10 -10v-10a10 10 0 0 1 10 -10"></path></g><path d="M405.0 31h10"></path><path d="M217.5 31a10 10 0 0 0 -10 10v40a10 10 0 0 0 10 10"></path><g class="terminal ">
<path d="M217.5 91h71.0"></path><path d="M334.0 91h71.0"></path><rect height="22" rx="10" ry="10" width="45.5" x="288.5" y="80"></rect><text x="311.25" y="95">','</text></g><path d="M405.0 91a10 10 0 0 0 10 -10v-40a10 10 0 0 0 -10 -10"></path></g><path d="M415.0 31h10"></path><path d="M425.0 31h10"></path><g class="terminal ">
<path d="M435.0 31h0.0"></path><path d="M480.5 31h0.0"></path><rect height="22" rx="10" ry="10" width="45.5" x="435.0" y="20"></rect><text x="457.75" y="35">'&#93;'</text></g></g><path d="M480.5 31h10"></path><path d="M 490.5 31 h 20 m -10 -10 v 20 m 10 -20 v 20"></path></g></svg>