<svg class="railroad-diagram" height="169" viewBox="0 0 377.0 169" width="377.0" xmlns="http://www.w3.org/2000/svg" xmlns:xlink="http://www.w3.org/1999/xlink">
<g transform="translate(.5 .5)">
<style>/* <![CDATA[ */
	svg.railroad-diagram {
		background-color:hsl(30,20%,95%);
	}
	svg.railroad-diagram path {
		stroke-width:3;
		stroke:black;
		fill:rgba(0,0,0,0);
	}
	svg.railroad-diagram text {
		font:bold 14px monospace;
		text-anchor:middle;
	}
	svg.railroad-diagram text.label{
		text-anchor:start;
	}
	svg.railroad-diagram text.comment{
		font:italic 12px monospace;
	}
	svg.railroad-diagram rect{
		stroke-width:3;
		stroke:black;
		fill:hsl(120,100%,90%);
	}
	svg.railroad-diagram rect.group-box {
		stroke: gray;
		stroke-dasharray: 10 5;
		fill: none;
	}

/* ]]> */
</style><g>
<path d="M20 30v20m10 -20v20m-10 -10h86.5"></path><text style="text-anchor:start" x="20" y="25">main&#95;rule</text></g><g>
<path d="M106.5 40h0.0"></path><path d="M337.0 40h0.0"></path><path d="M106.5 40a10 10 0 0 0 10 -10v0a10 10 0 0 1 10 -10"></path><g>
<path d="M126.5 20h190.5"></path></g><path d="M317.0 20a10 10 0 0 1 10 10v0a10 10 0 0 0 10 10"></path><path d="M106.5 40h20"></path><g>
<path d="M126.5 40h0.0"></path><path d="M317.0 40h0.0"></path><path d="M126.5 40h10"></path><g>
<path d="M136.5 40h0.0"></path><path d="M307.0 40h0.0"></path><path d="M136.5 40h20"></path><g class="terminal ">
<path d="M156.5 40h0.0"></path><path d="M287.0 40h0.0"></path><rect height="22" rx="10" ry="10" width="130.5" x="156.5" y="29"></rect><text x="221.75" y="44">import&#95;clause</text></g><path d="M287.0 40h20"></path><path d="M136.5 40a10 10 0 0 1 10 10v10a10 10 0 0 0 10 10"></path><g class="terminal ">
<path d="M156.5 70h38.25"></path><path d="M248.75 70h38.25"></path><rect height="22" rx="10" ry="10" width="54.0" x="194.75" y="59"></rect><text x="221.75" y="74">decl</text></g><path d="M287.0 70a10 10 0 0 0 10 -10v-10a10 10 0 0 1 10 -10"></path><path d="M136.5 40a10 10 0 0 1 10 10v40a10 10 0 0 0 10 10"></path><g class="terminal ">
<path d="M156.5 100h38.25"></path><path d="M248.75 100h38.25"></path><rect height="22" rx="10" ry="10" width="54.0" x="194.75" y="89"></rect><text x="221.75" y="104">expr</text></g><path d="M287.0 100a10 10 0 0 0 10 -10v-40a10 10 0 0 1 10 -10"></path><path d="M136.5 40a10 10 0 0 1 10 10v70a10 10 0 0 0 10 10"></path><g class="terminal ">
<path d="M156.5 130h21.25"></path><path d="M265.75 130h21.25"></path><rect height="22" rx="10" ry="10" width="88.0" x="177.75" y="119"></rect><text x="221.75" y="134">run&#95;pass</text></g><path d="M287.0 130a10 10 0 0 0 10 -10v-70a10 10 0 0 1 10 -10"></path></g><path d="M307.0 40h10"></path><path d="M136.5 40a10 10 0 0 0 -10 10v89a10 10 0 0 0 10 10"></path><g>
<path d="M136.5 149h170.5"></path></g><path d="M307.0 149a10 10 0 0 0 10 -10v-89a10 10 0 0 0 -10 -10"></path></g><path d="M317.0 40h20"></path></g><path d="M 337.0 40 h 20 m -10 -10 v 20 m 10 -20 v 20"></path></g></svg>