<svg class="railroad-diagram" height="62" viewBox="0 0 459.5 62" width="459.5" xmlns="http://www.w3.org/2000/svg">
<g transform="translate(.5 .5)">
<style>/* <![CDATA[ */
	svg.railroad-diagram {
		background-color:hsl(30,20%,95%);
	}
	svg.railroad-diagram path {
		stroke-width:3;
		stroke:black;
		fill:rgba(0,0,0,0);
	}
	svg.railroad-diagram text {
		font:bold 14px monospace;
		text-anchor:middle;
	}
	svg.railroad-diagram text.label{
		text-anchor:start;
	}
	svg.railroad-diagram text.comment{
		font:italic 12px monospace;
	}
	svg.railroad-diagram rect{
		stroke-width:3;
		stroke:black;
		fill:hsl(120,100%,90%);
	}
	svg.railroad-diagram rect.group-box {
		stroke: gray;
		stroke-dasharray: 10 5;
		fill: none;
	}

/* ]]> */
</style><g>
<path d="M20 21v20m10 -20v20m-10 -10h86.5"></path><text style="text-anchor:start" x="20" y="16">match&#95;arm</text></g><path d="M106.5 31h10"></path><g>
<path d="M116.5 31h0.0"></path><path d="M409.5 31h0.0"></path><g class="terminal ">
<path d="M116.5 31h0.0"></path><path d="M162.0 31h0.0"></path><rect height="22" rx="10" ry="10" width="45.5" x="116.5" y="20"></rect><text x="139.25" y="35">'|'</text></g><path d="M162.0 31h10"></path><path d="M172.0 31h10"></path><g class="terminal ">
<path d="M182.0 31h0.0"></path><path d="M261.5 31h0.0"></path><rect height="22" rx="10" ry="10" width="79.5" x="182.0" y="20"></rect><text x="221.75" y="35">pattern</text></g><path d="M261.5 31h10"></path><path d="M271.5 31h10"></path><g class="terminal ">
<path d="M281.5 31h0.0"></path><path d="M335.5 31h0.0"></path><rect height="22" rx="10" ry="10" width="54.0" x="281.5" y="20"></rect><text x="308.5" y="35">'=>'</text></g><path d="M335.5 31h10"></path><path d="M345.5 31h10"></path><g class="terminal ">
<path d="M355.5 31h0.0"></path><path d="M409.5 31h0.0"></path><rect height="22" rx="10" ry="10" width="54.0" x="355.5" y="20"></rect><text x="382.5" y="35">expr</text></g></g><path d="M409.5 31h10"></path><path d="M 419.5 31 h 20 m -10 -10 v 20 m 10 -20 v 20"></path></g></svg>