<svg class="railroad-diagram" height="71" viewBox="0 0 422.5 71" width="422.5" xmlns="http://www.w3.org/2000/svg">
<g transform="translate(.5 .5)">
<style>/* <![CDATA[ */
	svg.railroad-diagram {
		background-color:hsl(30,20%,95%);
	}
	svg.railroad-diagram path {
		stroke-width:3;
		stroke:black;
		fill:rgba(0,0,0,0);
	}
	svg.railroad-diagram text {
		font:bold 14px monospace;
		text-anchor:middle;
	}
	svg.railroad-diagram text.label{
		text-anchor:start;
	}
	svg.railroad-diagram text.comment{
		font:italic 12px monospace;
	}
	svg.railroad-diagram rect{
		stroke-width:3;
		stroke:black;
		fill:hsl(120,100%,90%);
	}
	svg.railroad-diagram rect.group-box {
		stroke: gray;
		stroke-dasharray: 10 5;
		fill: none;
	}

/* ]]> */
</style><g>
<path d="M20 21v20m10 -20v20m-10 -10h52.5"></path><text style="text-anchor:start" x="20" y="16">match</text></g><path d="M72.5 31h10"></path><g>
<path d="M82.5 31h0.0"></path><path d="M372.5 31h0.0"></path><g class="terminal ">
<path d="M82.5 31h0.0"></path><path d="M162.0 31h0.0"></path><rect height="22" rx="10" ry="10" width="79.5" x="82.5" y="20"></rect><text x="122.25" y="35">'match'</text></g><path d="M162.0 31h10"></path><path d="M172.0 31h10"></path><g class="terminal ">
<path d="M182.0 31h0.0"></path><path d="M236.0 31h0.0"></path><rect height="22" rx="10" ry="10" width="54.0" x="182.0" y="20"></rect><text x="209.0" y="35">expr</text></g><path d="M236.0 31h10"></path><path d="M246.0 31h10"></path><g>
<path d="M256.0 31h0.0"></path><path d="M372.5 31h0.0"></path><path d="M256.0 31h10"></path><g class="terminal ">
<path d="M266.0 31h0.0"></path><path d="M362.5 31h0.0"></path><rect height="22" rx="10" ry="10" width="96.5" x="266.0" y="20"></rect><text x="314.25" y="35">match&#95;arm</text></g><path d="M362.5 31h10"></path><path d="M266.0 31a10 10 0 0 0 -10 10v0a10 10 0 0 0 10 10"></path><g>
<path d="M266.0 51h96.5"></path></g><path d="M362.5 51a10 10 0 0 0 10 -10v0a10 10 0 0 0 -10 -10"></path></g></g><path d="M372.5 31h10"></path><path d="M 382.5 31 h 20 m -10 -10 v 20 m 10 -20 v 20"></path></g></svg>