<svg class="railroad-diagram" height="62" viewBox="0 0 343.0 62" width="343.0" xmlns="http://www.w3.org/2000/svg">
<g transform="translate(.5 .5)">
<style>/* <![CDATA[ */
	svg.railroad-diagram {
		background-color:hsl(30,20%,95%);
	}
	svg.railroad-diagram path {
		stroke-width:3;
		stroke:black;
		fill:rgba(0,0,0,0);
	}
	svg.railroad-diagram text {
		font:bold 14px monospace;
		text-anchor:middle;
	}
	svg.railroad-diagram text.label{
		text-anchor:start;
	}
	svg.railroad-diagram text.comment{
		font:italic 12px monospace;
	}
	svg.railroad-diagram rect{
		stroke-width:3;
		stroke:black;
		fill:hsl(120,100%,90%);
	}
	svg.railroad-diagram rect.group-box {
		stroke: gray;
		stroke-dasharray: 10 5;
		fill: none;
	}

/* ]]> */
</style><g>
<path d="M20 21v20m10 -20v20m-10 -10h86.5"></path><text style="text-anchor:start" x="20" y="16">named&#95;arg</text></g><path d="M106.5 31h10"></path><g>
<path d="M116.5 31h0.0"></path><path d="M293.0 31h0.0"></path><g class="terminal ">
<path d="M116.5 31h0.0"></path><path d="M153.5 31h0.0"></path><rect height="22" rx="10" ry="10" width="37.0" x="116.5" y="20"></rect><text x="135.0" y="35">id</text></g><path d="M153.5 31h10"></path><path d="M163.5 31h10"></path><g class="terminal ">
<path d="M173.5 31h0.0"></path><path d="M219.0 31h0.0"></path><rect height="22" rx="10" ry="10" width="45.5" x="173.5" y="20"></rect><text x="196.25" y="35">'='</text></g><path d="M219.0 31h10"></path><path d="M229.0 31h10"></path><g class="terminal ">
<path d="M239.0 31h0.0"></path><path d="M293.0 31h0.0"></path><rect height="22" rx="10" ry="10" width="54.0" x="239.0" y="20"></rect><text x="266.0" y="35">expr</text></g></g><path d="M293.0 31h10"></path><path d="M 303.0 31 h 20 m -10 -10 v 20 m 10 -20 v 20"></path></g></svg>