<svg class="railroad-diagram" height="62" viewBox="0 0 368.5 62" width="368.5" xmlns="http://www.w3.org/2000/svg">
<g transform="translate(.5 .5)">
<style>/* <![CDATA[ */
	svg.railroad-diagram {
		background-color:hsl(30,20%,95%);
	}
	svg.railroad-diagram path {
		stroke-width:3;
		stroke:black;
		fill:rgba(0,0,0,0);
	}
	svg.railroad-diagram text {
		font:bold 14px monospace;
		text-anchor:middle;
	}
	svg.railroad-diagram text.label{
		text-anchor:start;
	}
	svg.railroad-diagram text.comment{
		font:italic 12px monospace;
	}
	svg.railroad-diagram rect{
		stroke-width:3;
		stroke:black;
		fill:hsl(120,100%,90%);
	}
	svg.railroad-diagram rect.group-box {
		stroke: gray;
		stroke-dasharray: 10 5;
		fill: none;
	}

/* ]]> */
</style><g>
<path d="M20 21v20m10 -20v20m-10 -10h112.0"></path><text style="text-anchor:start" x="20" y="16">object&#95;assoc</text></g><path d="M132.0 31h10"></path><g>
<path d="M142.0 31h0.0"></path><path d="M318.5 31h0.0"></path><g class="terminal ">
<path d="M142.0 31h0.0"></path><path d="M179.0 31h0.0"></path><rect height="22" rx="10" ry="10" width="37.0" x="142.0" y="20"></rect><text x="160.5" y="35">id</text></g><path d="M179.0 31h10"></path><path d="M189.0 31h10"></path><g class="terminal ">
<path d="M199.0 31h0.0"></path><path d="M244.5 31h0.0"></path><rect height="22" rx="10" ry="10" width="45.5" x="199.0" y="20"></rect><text x="221.75" y="35">':'</text></g><path d="M244.5 31h10"></path><path d="M254.5 31h10"></path><g class="terminal ">
<path d="M264.5 31h0.0"></path><path d="M318.5 31h0.0"></path><rect height="22" rx="10" ry="10" width="54.0" x="264.5" y="20"></rect><text x="291.5" y="35">expr</text></g></g><path d="M318.5 31h10"></path><path d="M 328.5 31 h 20 m -10 -10 v 20 m 10 -20 v 20"></path></g></svg>