<svg class="railroad-diagram" height="71" viewBox="0 0 481.5 71" width="481.5" xmlns="http://www.w3.org/2000/svg">
<g transform="translate(.5 .5)">
<style>/* <![CDATA[ */
	svg.railroad-diagram {
		background-color:hsl(30,20%,95%);
	}
	svg.railroad-diagram path {
		stroke-width:3;
		stroke:black;
		fill:rgba(0,0,0,0);
	}
	svg.railroad-diagram text {
		font:bold 14px monospace;
		text-anchor:middle;
	}
	svg.railroad-diagram text.label{
		text-anchor:start;
	}
	svg.railroad-diagram text.comment{
		font:italic 12px monospace;
	}
	svg.railroad-diagram rect{
		stroke-width:3;
		stroke:black;
		fill:hsl(120,100%,90%);
	}
	svg.railroad-diagram rect.group-box {
		stroke: gray;
		stroke-dasharray: 10 5;
		fill: none;
	}

/* ]]> */
</style><g>
<path d="M20 30v20m10 -20v20m-10 -10h52.5"></path><text style="text-anchor:start" x="20" y="25">param</text></g><path d="M72.5 40h10"></path><g>
<path d="M82.5 40h0.0"></path><path d="M431.5 40h0.0"></path><g class="terminal ">
<path d="M82.5 40h0.0"></path><path d="M119.5 40h0.0"></path><rect height="22" rx="10" ry="10" width="37.0" x="82.5" y="29"></rect><text x="101.0" y="44">id</text></g><path d="M119.5 40h10"></path><g>
<path d="M129.5 40h0.0"></path><path d="M272.0 40h0.0"></path><path d="M129.5 40a10 10 0 0 0 10 -10v0a10 10 0 0 1 10 -10"></path><g>
<path d="M149.5 20h102.5"></path></g><path d="M252.0 20a10 10 0 0 1 10 10v0a10 10 0 0 0 10 10"></path><path d="M129.5 40h20"></path><g>
<path d="M149.5 40h0.0"></path><path d="M252.0 40h0.0"></path><g class="terminal ">
<path d="M149.5 40h0.0"></path><path d="M195.0 40h0.0"></path><rect height="22" rx="10" ry="10" width="45.5" x="149.5" y="29"></rect><text x="172.25" y="44">':'</text></g><path d="M195.0 40h10"></path><path d="M205.0 40h10"></path><g class="terminal ">
<path d="M215.0 40h0.0"></path><path d="M252.0 40h0.0"></path><rect height="22" rx="10" ry="10" width="37.0" x="215.0" y="29"></rect><text x="233.5" y="44">id</text></g></g><path d="M252.0 40h20"></path></g><g>
<path d="M272.0 40h0.0"></path><path d="M431.5 40h0.0"></path><path d="M272.0 40a10 10 0 0 0 10 -10v0a10 10 0 0 1 10 -10"></path><g>
<path d="M292.0 20h119.5"></path></g><path d="M411.5 20a10 10 0 0 1 10 10v0a10 10 0 0 0 10 10"></path><path d="M272.0 40h20"></path><g>
<path d="M292.0 40h0.0"></path><path d="M411.5 40h0.0"></path><g class="terminal ">
<path d="M292.0 40h0.0"></path><path d="M337.5 40h0.0"></path><rect height="22" rx="10" ry="10" width="45.5" x="292.0" y="29"></rect><text x="314.75" y="44">'='</text></g><path d="M337.5 40h10"></path><path d="M347.5 40h10"></path><g class="terminal ">
<path d="M357.5 40h0.0"></path><path d="M411.5 40h0.0"></path><rect height="22" rx="10" ry="10" width="54.0" x="357.5" y="29"></rect><text x="384.5" y="44">expr</text></g></g><path d="M411.5 40h20"></path></g></g><path d="M431.5 40h10"></path><path d="M 441.5 40 h 20 m -10 -10 v 20 m 10 -20 v 20"></path></g></svg>