<svg class="railroad-diagram" height="109" viewBox="0 0 709.5 109" width="709.5" xmlns="http://www.w3.org/2000/svg" xmlns:xlink="http://www.w3.org/1999/xlink">
<g transform="translate(.5 .5)">
<style>/* <![CDATA[ */
	svg.railroad-diagram {
		background-color:hsl(30,20%,95%);
	}
	svg.railroad-diagram path {
		stroke-width:3;
		stroke:black;
		fill:rgba(0,0,0,0);
	}
	svg.railroad-diagram text {
		font:bold 14px monospace;
		text-anchor:middle;
	}
	svg.railroad-diagram text.label{
		text-anchor:start;
	}
	svg.railroad-diagram text.comment{
		font:italic 12px monospace;
	}
	svg.railroad-diagram rect{
		stroke-width:3;
		stroke:black;
		fill:hsl(120,100%,90%);
	}
	svg.railroad-diagram rect.group-box {
		stroke: gray;
		stroke-dasharray: 10 5;
		fill: none;
	}

/* ]]> */
</style><g>
<path d="M20 30v20m10 -20v20m-10 -10h129.0"></path><text style="text-anchor:start" x="20" y="25">pass&#95;add&#95;block</text></g><path d="M149.0 40h10"></path><g>
<path d="M159.0 40h0.0"></path><path d="M659.5 40h0.0"></path><g class="terminal ">
<path d="M159.0 40h0.0"></path><path d="M264.0 40h0.0"></path><rect height="22" rx="10" ry="10" width="105.0" x="159.0" y="29"></rect><text x="211.5" y="44">Identifier</text></g><path d="M264.0 40h10"></path><path d="M274.0 40h10"></path><g class="terminal ">
<path d="M284.0 40h0.0"></path><path d="M329.5 40h0.0"></path><rect height="22" rx="10" ry="10" width="45.5" x="284.0" y="29"></rect><text x="306.75" y="44">'{'</text></g><path d="M329.5 40h10"></path><g>
<path d="M339.5 40h0.0"></path><path d="M604.0 40h0.0"></path><path d="M339.5 40a10 10 0 0 0 10 -10v0a10 10 0 0 1 10 -10"></path><g>
<path d="M359.5 20h224.5"></path></g><path d="M584.0 20a10 10 0 0 1 10 10v0a10 10 0 0 0 10 10"></path><path d="M339.5 40h20"></path><g>
<path d="M359.5 40h0.0"></path><path d="M584.0 40h0.0"></path><path d="M359.5 40h10"></path><g>
<path d="M369.5 40h0.0"></path><path d="M574.0 40h0.0"></path><path d="M369.5 40h20"></path><g class="terminal ">
<path d="M389.5 40h0.0"></path><path d="M554.0 40h0.0"></path><rect height="22" rx="10" ry="10" width="164.5" x="389.5" y="29"></rect><text x="471.75" y="44">prefix&#95;field&#95;decl</text></g><path d="M554.0 40h20"></path><path d="M369.5 40a10 10 0 0 1 10 10v10a10 10 0 0 0 10 10"></path><g class="terminal ">
<path d="M389.5 70h29.75"></path><path d="M524.25 70h29.75"></path><rect height="22" rx="10" ry="10" width="105.0" x="419.25" y="59"></rect><text x="471.75" y="74">class&#95;decl</text></g><path d="M554.0 70a10 10 0 0 0 10 -10v-10a10 10 0 0 1 10 -10"></path></g><path d="M574.0 40h10"></path><path d="M369.5 40a10 10 0 0 0 -10 10v29a10 10 0 0 0 10 10"></path><g>
<path d="M369.5 89h204.5"></path></g><path d="M574.0 89a10 10 0 0 0 10 -10v-29a10 10 0 0 0 -10 -10"></path></g><path d="M584.0 40h20"></path></g><path d="M604.0 40h10"></path><g class="terminal ">
<path d="M614.0 40h0.0"></path><path d="M659.5 40h0.0"></path><rect height="22" rx="10" ry="10" width="45.5" x="614.0" y="29"></rect><text x="636.75" y="44">'}'</text></g></g><path d="M659.5 40h10"></path><path d="M 669.5 40 h 20 m -10 -10 v 20 m 10 -20 v 20"></path></g></svg>