<svg class="railroad-diagram" height="80" viewBox="0 0 635.5 80" width="635.5" xmlns="http://www.w3.org/2000/svg" xmlns:xlink="http://www.w3.org/1999/xlink">
<g transform="translate(.5 .5)">
<style>/* <![CDATA[ */
	svg.railroad-diagram {
		background-color:hsl(30,20%,95%);
	}
	svg.railroad-diagram path {
		stroke-width:3;
		stroke:black;
		fill:rgba(0,0,0,0);
	}
	svg.railroad-diagram text {
		font:bold 14px monospace;
		text-anchor:middle;
	}
	svg.railroad-diagram text.label{
		text-anchor:start;
	}
	svg.railroad-diagram text.comment{
		font:italic 12px monospace;
	}
	svg.railroad-diagram rect{
		stroke-width:3;
		stroke:black;
		fill:hsl(120,100%,90%);
	}
	svg.railroad-diagram rect.group-box {
		stroke: gray;
		stroke-dasharray: 10 5;
		fill: none;
	}

/* ]]> */
</style><g>
<path d="M20 30v20m10 -20v20m-10 -10h163.0"></path><text style="text-anchor:start" x="20" y="25">pass&#95;rewrite&#95;block</text></g><path d="M183.0 40h10"></path><g>
<path d="M193.0 40h0.0"></path><path d="M585.5 40h0.0"></path><g class="terminal ">
<path d="M193.0 40h0.0"></path><path d="M298.0 40h0.0"></path><rect height="22" rx="10" ry="10" width="105.0" x="193.0" y="29"></rect><text x="245.5" y="44">Identifier</text></g><path d="M298.0 40h10"></path><path d="M308.0 40h10"></path><g class="terminal ">
<path d="M318.0 40h0.0"></path><path d="M363.5 40h0.0"></path><rect height="22" rx="10" ry="10" width="45.5" x="318.0" y="29"></rect><text x="340.75" y="44">'{'</text></g><path d="M363.5 40h10"></path><g>
<path d="M373.5 40h0.0"></path><path d="M530.0 40h0.0"></path><path d="M373.5 40a10 10 0 0 0 10 -10v0a10 10 0 0 1 10 -10"></path><g>
<path d="M393.5 20h116.5"></path></g><path d="M510.0 20a10 10 0 0 1 10 10v0a10 10 0 0 0 10 10"></path><path d="M373.5 40h20"></path><g>
<path d="M393.5 40h0.0"></path><path d="M510.0 40h0.0"></path><path d="M393.5 40h10"></path><g class="terminal ">
<path d="M403.5 40h0.0"></path><path d="M500.0 40h0.0"></path><rect height="22" rx="10" ry="10" width="96.5" x="403.5" y="29"></rect><text x="451.75" y="44">match&#95;arm</text></g><path d="M500.0 40h10"></path><path d="M403.5 40a10 10 0 0 0 -10 10v0a10 10 0 0 0 10 10"></path><g>
<path d="M403.5 60h96.5"></path></g><path d="M500.0 60a10 10 0 0 0 10 -10v0a10 10 0 0 0 -10 -10"></path></g><path d="M510.0 40h20"></path></g><path d="M530.0 40h10"></path><g class="terminal ">
<path d="M540.0 40h0.0"></path><path d="M585.5 40h0.0"></path><rect height="22" rx="10" ry="10" width="45.5" x="540.0" y="29"></rect><text x="562.75" y="44">'}'</text></g></g><path d="M585.5 40h10"></path><path d="M 595.5 40 h 20 m -10 -10 v 20 m 10 -20 v 20"></path></g></svg>