<svg class="railroad-diagram" height="92" viewBox="0 0 465.0 92" width="465.0" xmlns="http://www.w3.org/2000/svg" xmlns:xlink="http://www.w3.org/1999/xlink">
<g transform="translate(.5 .5)">
<style>/* <![CDATA[ */
	svg.railroad-diagram {
		background-color:hsl(30,20%,95%);
	}
	svg.railroad-diagram path {
		stroke-width:3;
		stroke:black;
		fill:rgba(0,0,0,0);
	}
	svg.railroad-diagram text {
		font:bold 14px monospace;
		text-anchor:middle;
	}
	svg.railroad-diagram text.label{
		text-anchor:start;
	}
	svg.railroad-diagram text.comment{
		font:italic 12px monospace;
	}
	svg.railroad-diagram rect{
		stroke-width:3;
		stroke:black;
		fill:hsl(120,100%,90%);
	}
	svg.railroad-diagram rect.group-box {
		stroke: gray;
		stroke-dasharray: 10 5;
		fill: none;
	}

/* ]]> */
</style><g>
<path d="M20 21v20m10 -20v20m-10 -10h69.5"></path><text style="text-anchor:start" x="20" y="16">pattern</text></g><g>
<path d="M89.5 31h0.0"></path><path d="M425.0 31h0.0"></path><path d="M89.5 31h20"></path><g>
<path d="M109.5 31h0.0"></path><path d="M405.0 31h0.0"></path><g class="terminal ">
<path d="M109.5 31h0.0"></path><path d="M240.0 31h0.0"></path><rect height="22" rx="10" ry="10" width="130.5" x="109.5" y="20"></rect><text x="174.75" y="35">value&#95;pattern</text></g><path d="M240.0 31h10"></path><path d="M250.0 31h10"></path><g class="terminal ">
<path d="M260.0 31h0.0"></path><path d="M331.0 31h0.0"></path><rect height="22" rx="10" ry="10" width="71.0" x="260.0" y="20"></rect><text x="295.5" y="35">'when'</text></g><path d="M331.0 31h10"></path><path d="M341.0 31h10"></path><g class="terminal ">
<path d="M351.0 31h0.0"></path><path d="M405.0 31h0.0"></path><rect height="22" rx="10" ry="10" width="54.0" x="351.0" y="20"></rect><text x="378.0" y="35">expr</text></g></g><path d="M405.0 31h20"></path><path d="M89.5 31a10 10 0 0 1 10 10v10a10 10 0 0 0 10 10"></path><g class="terminal ">
<path d="M109.5 61h82.5"></path><path d="M322.5 61h82.5"></path><rect height="22" rx="10" ry="10" width="130.5" x="192.0" y="50"></rect><text x="257.25" y="65">value&#95;pattern</text></g><path d="M405.0 61a10 10 0 0 0 10 -10v-10a10 10 0 0 1 10 -10"></path></g><path d="M 425.0 31 h 20 m -10 -10 v 20 m 10 -20 v 20"></path></g></svg>