<svg class="railroad-diagram" height="92" viewBox="0 0 499.0 92" width="499.0" xmlns="http://www.w3.org/2000/svg" xmlns:xlink="http://www.w3.org/1999/xlink">
<g transform="translate(.5 .5)">
<style>/* <![CDATA[ */
	svg.railroad-diagram {
		background-color:hsl(30,20%,95%);
	}
	svg.railroad-diagram path {
		stroke-width:3;
		stroke:black;
		fill:rgba(0,0,0,0);
	}
	svg.railroad-diagram text {
		font:bold 14px monospace;
		text-anchor:middle;
	}
	svg.railroad-diagram text.label{
		text-anchor:start;
	}
	svg.railroad-diagram text.comment{
		font:italic 12px monospace;
	}
	svg.railroad-diagram rect{
		stroke-width:3;
		stroke:black;
		fill:hsl(120,100%,90%);
	}
	svg.railroad-diagram rect.group-box {
		stroke: gray;
		stroke-dasharray: 10 5;
		fill: none;
	}

/* ]]> */
</style><g>
<path d="M20 21v20m10 -20v20m-10 -10h69.5"></path><text style="text-anchor:start" x="20" y="16">pattern</text></g><g>
<path d="M89.5 31h0.0"></path><path d="M459.0 31h0.0"></path><path d="M89.5 31h20"></path><g>
<path d="M109.5 31h0.0"></path><path d="M439.0 31h0.0"></path><g class="terminal ">
<path d="M109.5 31h0.0"></path><path d="M265.5 31h0.0"></path><rect height="22" rx="10" ry="10" width="156.0" x="109.5" y="20"></rect><text x="187.5" y="35">filtered&#95;pattern</text></g><path d="M265.5 31h10"></path><path d="M275.5 31h10"></path><g class="terminal ">
<path d="M285.5 31h0.0"></path><path d="M339.5 31h0.0"></path><rect height="22" rx="10" ry="10" width="54.0" x="285.5" y="20"></rect><text x="312.5" y="35">'or'</text></g><path d="M339.5 31h10"></path><path d="M349.5 31h10"></path><g class="terminal ">
<path d="M359.5 31h0.0"></path><path d="M439.0 31h0.0"></path><rect height="22" rx="10" ry="10" width="79.5" x="359.5" y="20"></rect><text x="399.25" y="35">pattern</text></g></g><path d="M439.0 31h20"></path><path d="M89.5 31a10 10 0 0 1 10 10v10a10 10 0 0 0 10 10"></path><g class="terminal ">
<path d="M109.5 61h86.75"></path><path d="M352.25 61h86.75"></path><rect height="22" rx="10" ry="10" width="156.0" x="196.25" y="50"></rect><text x="274.25" y="65">filtered&#95;pattern</text></g><path d="M439.0 61a10 10 0 0 0 10 -10v-10a10 10 0 0 1 10 -10"></path></g><path d="M 459.0 31 h 20 m -10 -10 v 20 m 10 -20 v 20"></path></g></svg>