<svg class="railroad-diagram" height="122" viewBox="0 0 507.5 122" width="507.5" xmlns="http://www.w3.org/2000/svg">
<g transform="translate(.5 .5)">
<style>/* <![CDATA[ */
	svg.railroad-diagram {
		background-color:hsl(30,20%,95%);
	}
	svg.railroad-diagram path {
		stroke-width:3;
		stroke:black;
		fill:rgba(0,0,0,0);
	}
	svg.railroad-diagram text {
		font:bold 14px monospace;
		text-anchor:middle;
	}
	svg.railroad-diagram text.label{
		text-anchor:start;
	}
	svg.railroad-diagram text.comment{
		font:italic 12px monospace;
	}
	svg.railroad-diagram rect{
		stroke-width:3;
		stroke:black;
		fill:hsl(120,100%,90%);
	}
	svg.railroad-diagram rect.group-box {
		stroke: gray;
		stroke-dasharray: 10 5;
		fill: none;
	}

/* ]]> */
</style><g>
<path d="M20 21v20m10 -20v20m-10 -10h103.5"></path><text style="text-anchor:start" x="20" y="16">pattern&#95;arg</text></g><g>
<path d="M123.5 31h0.0"></path><path d="M467.5 31h0.0"></path><path d="M123.5 31h20"></path><g>
<path d="M143.5 31h0.0"></path><path d="M447.5 31h0.0"></path><g class="terminal ">
<path d="M143.5 31h0.0"></path><path d="M274.0 31h0.0"></path><rect height="22" rx="10" ry="10" width="130.5" x="143.5" y="20"></rect><text x="208.75" y="35">selector&#95;call</text></g><path d="M274.0 31h10"></path><path d="M284.0 31h10"></path><g class="terminal ">
<path d="M294.0 31h0.0"></path><path d="M348.0 31h0.0"></path><rect height="22" rx="10" ry="10" width="54.0" x="294.0" y="20"></rect><text x="321.0" y="35">'is'</text></g><path d="M348.0 31h10"></path><path d="M358.0 31h10"></path><g class="terminal ">
<path d="M368.0 31h0.0"></path><path d="M447.5 31h0.0"></path><rect height="22" rx="10" ry="10" width="79.5" x="368.0" y="20"></rect><text x="407.75" y="35">pattern</text></g></g><path d="M447.5 31h20"></path><path d="M123.5 31a10 10 0 0 1 10 10v10a10 10 0 0 0 10 10"></path><g>
<path d="M143.5 61h25.5"></path><path d="M422.0 61h25.5"></path><g class="terminal ">
<path d="M169.0 61h0.0"></path><path d="M206.0 61h0.0"></path><rect height="22" rx="10" ry="10" width="37.0" x="169.0" y="50"></rect><text x="187.5" y="65">id</text></g><path d="M206.0 61h10"></path><path d="M216.0 61h10"></path><g class="terminal ">
<path d="M226.0 61h0.0"></path><path d="M280.0 61h0.0"></path><rect height="22" rx="10" ry="10" width="54.0" x="226.0" y="50"></rect><text x="253.0" y="65">'is'</text></g><path d="M280.0 61h10"></path><path d="M290.0 61h10"></path><g class="terminal ">
<path d="M300.0 61h0.0"></path><path d="M422.0 61h0.0"></path><rect height="22" rx="10" ry="10" width="122.0" x="300.0" y="50"></rect><text x="361.0" y="65">detail&#95;value</text></g></g><path d="M447.5 61a10 10 0 0 0 10 -10v-10a10 10 0 0 1 10 -10"></path><path d="M123.5 31a10 10 0 0 1 10 10v40a10 10 0 0 0 10 10"></path><g>
<path d="M143.5 91h0.0"></path><path d="M447.5 91h0.0"></path><g class="terminal ">
<path d="M143.5 91h0.0"></path><path d="M231.5 91h0.0"></path><rect height="22" rx="10" ry="10" width="88.0" x="143.5" y="80"></rect><text x="187.5" y="95">fun&#95;call</text></g><path d="M231.5 91h10"></path><path d="M241.5 91h10"></path><g class="terminal ">
<path d="M251.5 91h0.0"></path><path d="M305.5 91h0.0"></path><rect height="22" rx="10" ry="10" width="54.0" x="251.5" y="80"></rect><text x="278.5" y="95">'is'</text></g><path d="M305.5 91h10"></path><path d="M315.5 91h10"></path><g class="terminal ">
<path d="M325.5 91h0.0"></path><path d="M447.5 91h0.0"></path><rect height="22" rx="10" ry="10" width="122.0" x="325.5" y="80"></rect><text x="386.5" y="95">detail&#95;value</text></g></g><path d="M447.5 91a10 10 0 0 0 10 -10v-40a10 10 0 0 1 10 -10"></path></g><path d="M 467.5 31 h 20 m -10 -10 v 20 m 10 -20 v 20"></path></g></svg>