<svg class="railroad-diagram" height="161" viewBox="0 0 911.0 161" width="911.0" xmlns="http://www.w3.org/2000/svg">
<g transform="translate(.5 .5)">
<style>/* <![CDATA[ */
	svg.railroad-diagram {
		background-color:hsl(30,20%,95%);
	}
	svg.railroad-diagram path {
		stroke-width:3;
		stroke:black;
		fill:rgba(0,0,0,0);
	}
	svg.railroad-diagram text {
		font:bold 14px monospace;
		text-anchor:middle;
	}
	svg.railroad-diagram text.label{
		text-anchor:start;
	}
	svg.railroad-diagram text.comment{
		font:italic 12px monospace;
	}
	svg.railroad-diagram rect{
		stroke-width:3;
		stroke:black;
		fill:hsl(120,100%,90%);
	}
	svg.railroad-diagram rect.group-box {
		stroke: gray;
		stroke-dasharray: 10 5;
		fill: none;
	}

/* ]]> */
</style><g>
<path d="M20 30v20m10 -20v20m-10 -10h103.5"></path><text style="text-anchor:start" x="20" y="25">pattern&#95;arg</text></g><g>
<path d="M123.5 40h0.0"></path><path d="M871.0 40h0.0"></path><path d="M123.5 40h20"></path><g>
<path d="M143.5 40h0.0"></path><path d="M851.0 40h0.0"></path><g>
<path d="M143.5 40h0.0"></path><path d="M677.5 40h0.0"></path><g class="terminal ">
<path d="M143.5 40h0.0"></path><path d="M180.5 40h0.0"></path><rect height="22" rx="10" ry="10" width="37.0" x="143.5" y="29"></rect><text x="162.0" y="44">id</text></g><path d="M180.5 40h10"></path><g>
<path d="M190.5 40h0.0"></path><path d="M333.0 40h0.0"></path><path d="M190.5 40a10 10 0 0 0 10 -10v0a10 10 0 0 1 10 -10"></path><g>
<path d="M210.5 20h102.5"></path></g><path d="M313.0 20a10 10 0 0 1 10 10v0a10 10 0 0 0 10 10"></path><path d="M190.5 40h20"></path><g>
<path d="M210.5 40h0.0"></path><path d="M313.0 40h0.0"></path><g class="terminal ">
<path d="M210.5 40h0.0"></path><path d="M247.5 40h0.0"></path><rect height="22" rx="10" ry="10" width="37.0" x="210.5" y="29"></rect><text x="229.0" y="44">id</text></g><path d="M247.5 40h10"></path><path d="M257.5 40h10"></path><g class="terminal ">
<path d="M267.5 40h0.0"></path><path d="M313.0 40h0.0"></path><rect height="22" rx="10" ry="10" width="45.5" x="267.5" y="29"></rect><text x="290.25" y="44">'@'</text></g></g><path d="M313.0 40h20"></path></g><path d="M333.0 40h10"></path><g class="terminal ">
<path d="M343.0 40h0.0"></path><path d="M380.0 40h0.0"></path><rect height="22" rx="10" ry="10" width="37.0" x="343.0" y="29"></rect><text x="361.5" y="44">id</text></g><path d="M380.0 40h10"></path><g>
<path d="M390.0 40h0.0"></path><path d="M677.5 40h0.0"></path><path d="M390.0 40a10 10 0 0 0 10 -10v0a10 10 0 0 1 10 -10"></path><g>
<path d="M410.0 20h247.5"></path></g><path d="M657.5 20a10 10 0 0 1 10 10v0a10 10 0 0 0 10 10"></path><path d="M390.0 40h20"></path><g>
<path d="M410.0 40h0.0"></path><path d="M657.5 40h0.0"></path><g class="terminal ">
<path d="M410.0 40h0.0"></path><path d="M455.5 40h0.0"></path><rect height="22" rx="10" ry="10" width="45.5" x="410.0" y="29"></rect><text x="432.75" y="44">'('</text></g><path d="M455.5 40h10"></path><path d="M465.5 40h10"></path><g>
<path d="M475.5 40h0.0"></path><path d="M592.0 40h0.0"></path><path d="M475.5 40h10"></path><g class="terminal ">
<path d="M485.5 40h0.0"></path><path d="M582.0 40h0.0"></path><rect height="22" rx="10" ry="10" width="96.5" x="485.5" y="29"></rect><text x="533.75" y="44">named&#95;arg</text></g><path d="M582.0 40h10"></path><path d="M485.5 40a10 10 0 0 0 -10 10v10a10 10 0 0 0 10 10"></path><g class="terminal ">
<path d="M485.5 70h25.5"></path><path d="M556.5 70h25.5"></path><rect height="22" rx="10" ry="10" width="45.5" x="511.0" y="59"></rect><text x="533.75" y="74">','</text></g><path d="M582.0 70a10 10 0 0 0 10 -10v-10a10 10 0 0 0 -10 -10"></path></g><path d="M592.0 40h10"></path><path d="M602.0 40h10"></path><g class="terminal ">
<path d="M612.0 40h0.0"></path><path d="M657.5 40h0.0"></path><rect height="22" rx="10" ry="10" width="45.5" x="612.0" y="29"></rect><text x="634.75" y="44">')'</text></g></g><path d="M657.5 40h20"></path></g></g><path d="M677.5 40h10"></path><path d="M687.5 40h10"></path><g class="terminal ">
<path d="M697.5 40h0.0"></path><path d="M751.5 40h0.0"></path><rect height="22" rx="10" ry="10" width="54.0" x="697.5" y="29"></rect><text x="724.5" y="44">'is'</text></g><path d="M751.5 40h10"></path><path d="M761.5 40h10"></path><g class="terminal ">
<path d="M771.5 40h0.0"></path><path d="M851.0 40h0.0"></path><rect height="22" rx="10" ry="10" width="79.5" x="771.5" y="29"></rect><text x="811.25" y="44">pattern</text></g></g><path d="M851.0 40h20"></path><path d="M123.5 40a10 10 0 0 1 10 10v40a10 10 0 0 0 10 10"></path><g>
<path d="M143.5 100h227.25"></path><path d="M623.75 100h227.25"></path><g class="terminal ">
<path d="M370.75 100h0.0"></path><path d="M407.75 100h0.0"></path><rect height="22" rx="10" ry="10" width="37.0" x="370.75" y="89"></rect><text x="389.25" y="104">id</text></g><path d="M407.75 100h10"></path><path d="M417.75 100h10"></path><g class="terminal ">
<path d="M427.75 100h0.0"></path><path d="M481.75 100h0.0"></path><rect height="22" rx="10" ry="10" width="54.0" x="427.75" y="89"></rect><text x="454.75" y="104">'is'</text></g><path d="M481.75 100h10"></path><path d="M491.75 100h10"></path><g class="terminal ">
<path d="M501.75 100h0.0"></path><path d="M623.75 100h0.0"></path><rect height="22" rx="10" ry="10" width="122.0" x="501.75" y="89"></rect><text x="562.75" y="104">detail&#95;value</text></g></g><path d="M851.0 100a10 10 0 0 0 10 -10v-40a10 10 0 0 1 10 -10"></path><path d="M123.5 40a10 10 0 0 1 10 10v70a10 10 0 0 0 10 10"></path><g>
<path d="M143.5 130h201.75"></path><path d="M649.25 130h201.75"></path><g class="terminal ">
<path d="M345.25 130h0.0"></path><path d="M433.25 130h0.0"></path><rect height="22" rx="10" ry="10" width="88.0" x="345.25" y="119"></rect><text x="389.25" y="134">fun&#95;call</text></g><path d="M433.25 130h10"></path><path d="M443.25 130h10"></path><g class="terminal ">
<path d="M453.25 130h0.0"></path><path d="M507.25 130h0.0"></path><rect height="22" rx="10" ry="10" width="54.0" x="453.25" y="119"></rect><text x="480.25" y="134">'is'</text></g><path d="M507.25 130h10"></path><path d="M517.25 130h10"></path><g class="terminal ">
<path d="M527.25 130h0.0"></path><path d="M649.25 130h0.0"></path><rect height="22" rx="10" ry="10" width="122.0" x="527.25" y="119"></rect><text x="588.25" y="134">detail&#95;value</text></g></g><path d="M851.0 130a10 10 0 0 0 10 -10v-70a10 10 0 0 1 10 -10"></path></g><path d="M 871.0 40 h 20 m -10 -10 v 20 m 10 -20 v 20"></path></g></svg>