<svg class="railroad-diagram" height="92" viewBox="0 0 482.0 92" width="482.0" xmlns="http://www.w3.org/2000/svg" xmlns:xlink="http://www.w3.org/1999/xlink">
<g transform="translate(.5 .5)">
<style>/* <![CDATA[ */
	svg.railroad-diagram {
		background-color:hsl(30,20%,95%);
	}
	svg.railroad-diagram path {
		stroke-width:3;
		stroke:black;
		fill:rgba(0,0,0,0);
	}
	svg.railroad-diagram text {
		font:bold 14px monospace;
		text-anchor:middle;
	}
	svg.railroad-diagram text.label{
		text-anchor:start;
	}
	svg.railroad-diagram text.comment{
		font:italic 12px monospace;
	}
	svg.railroad-diagram rect{
		stroke-width:3;
		stroke:black;
		fill:hsl(120,100%,90%);
	}
	svg.railroad-diagram rect.group-box {
		stroke: gray;
		stroke-dasharray: 10 5;
		fill: none;
	}

/* ]]> */
</style><g>
<path d="M20 21v20m10 -20v20m-10 -10h69.5"></path><text style="text-anchor:start" x="20" y="16">pattern</text></g><g>
<path d="M89.5 31h0.0"></path><path d="M442.0 31h0.0"></path><path d="M89.5 31h20"></path><g>
<path d="M109.5 31h0.0"></path><path d="M422.0 31h0.0"></path><g class="terminal ">
<path d="M109.5 31h0.0"></path><path d="M257.0 31h0.0"></path><rect height="22" rx="10" ry="10" width="147.5" x="109.5" y="20"></rect><text x="183.25" y="35">binding&#95;pattern</text></g><path d="M257.0 31h10"></path><path d="M267.0 31h10"></path><g class="terminal ">
<path d="M277.0 31h0.0"></path><path d="M348.0 31h0.0"></path><rect height="22" rx="10" ry="10" width="71.0" x="277.0" y="20"></rect><text x="312.5" y="35">'when'</text></g><path d="M348.0 31h10"></path><path d="M358.0 31h10"></path><g class="terminal ">
<path d="M368.0 31h0.0"></path><path d="M422.0 31h0.0"></path><rect height="22" rx="10" ry="10" width="54.0" x="368.0" y="20"></rect><text x="395.0" y="35">expr</text></g></g><path d="M422.0 31h20"></path><path d="M89.5 31a10 10 0 0 1 10 10v10a10 10 0 0 0 10 10"></path><g class="terminal ">
<path d="M109.5 61h82.5"></path><path d="M339.5 61h82.5"></path><rect height="22" rx="10" ry="10" width="147.5" x="192.0" y="50"></rect><text x="265.75" y="65">binding&#95;pattern</text></g><path d="M422.0 61a10 10 0 0 0 10 -10v-10a10 10 0 0 1 10 -10"></path></g><path d="M 442.0 31 h 20 m -10 -10 v 20 m 10 -20 v 20"></path></g></svg>