<svg class="railroad-diagram" height="101" viewBox="0 0 755.5 101" width="755.5" xmlns="http://www.w3.org/2000/svg">
<g transform="translate(.5 .5)">
<style>/* <![CDATA[ */
	svg.railroad-diagram {
		background-color:hsl(30,20%,95%);
	}
	svg.railroad-diagram path {
		stroke-width:3;
		stroke:black;
		fill:rgba(0,0,0,0);
	}
	svg.railroad-diagram text {
		font:bold 14px monospace;
		text-anchor:middle;
	}
	svg.railroad-diagram text.label{
		text-anchor:start;
	}
	svg.railroad-diagram text.comment{
		font:italic 12px monospace;
	}
	svg.railroad-diagram rect{
		stroke-width:3;
		stroke:black;
		fill:hsl(120,100%,90%);
	}
	svg.railroad-diagram rect.group-box {
		stroke: gray;
		stroke-dasharray: 10 5;
		fill: none;
	}

/* ]]> */
</style><g>
<path d="M20 30v20m10 -20v20m-10 -10h52.5"></path><text style="text-anchor:start" x="20" y="25">query</text></g><path d="M72.5 40h10"></path><g>
<path d="M82.5 40h0.0"></path><path d="M705.5 40h0.0"></path><g>
<path d="M82.5 40h0.0"></path><path d="M363.0 40h0.0"></path><path d="M82.5 40a10 10 0 0 0 10 -10v0a10 10 0 0 1 10 -10"></path><g>
<path d="M102.5 20h240.5"></path></g><path d="M343.0 20a10 10 0 0 1 10 10v0a10 10 0 0 0 10 10"></path><path d="M82.5 40h20"></path><g>
<path d="M102.5 40h0.0"></path><path d="M343.0 40h0.0"></path><g class="terminal ">
<path d="M102.5 40h0.0"></path><path d="M173.5 40h0.0"></path><rect height="22" rx="10" ry="10" width="71.0" x="102.5" y="29"></rect><text x="138.0" y="44">'from'</text></g><path d="M173.5 40h10"></path><g>
<path d="M183.5 40h0.0"></path><path d="M343.0 40h0.0"></path><path d="M183.5 40h20"></path><g class="terminal ">
<path d="M203.5 40h32.75"></path><path d="M290.25 40h32.75"></path><rect height="22" rx="10" ry="10" width="54.0" x="236.25" y="29"></rect><text x="263.25" y="44">expr</text></g><path d="M323.0 40h20"></path><path d="M183.5 40a10 10 0 0 1 10 10v10a10 10 0 0 0 10 10"></path><g>
<path d="M203.5 70h0.0"></path><path d="M323.0 70h0.0"></path><g class="terminal ">
<path d="M203.5 70h0.0"></path><path d="M249.0 70h0.0"></path><rect height="22" rx="10" ry="10" width="45.5" x="203.5" y="59"></rect><text x="226.25" y="74">'&#42;'</text></g><path d="M249.0 70h10"></path><path d="M259.0 70h10"></path><g class="terminal ">
<path d="M269.0 70h0.0"></path><path d="M323.0 70h0.0"></path><rect height="22" rx="10" ry="10" width="54.0" x="269.0" y="59"></rect><text x="296.0" y="74">expr</text></g></g><path d="M323.0 70a10 10 0 0 0 10 -10v-10a10 10 0 0 1 10 -10"></path></g></g><path d="M343.0 40h20"></path></g><path d="M363.0 40h10"></path><g class="terminal ">
<path d="M373.0 40h0.0"></path><path d="M461.0 40h0.0"></path><rect height="22" rx="10" ry="10" width="88.0" x="373.0" y="29"></rect><text x="417.0" y="44">'select'</text></g><path d="M461.0 40h10"></path><g>
<path d="M471.0 40h0.0"></path><path d="M616.0 40h0.0"></path><path d="M471.0 40h20"></path><g>
<path d="M491.0 40h0.0"></path><path d="M596.0 40h0.0"></path><g class="terminal ">
<path d="M491.0 40h0.0"></path><path d="M596.0 40h0.0"></path><rect height="22" rx="10" ry="10" width="105.0" x="491.0" y="29"></rect><text x="543.5" y="44">Identifier</text></g></g><path d="M596.0 40h20"></path><path d="M471.0 40a10 10 0 0 1 10 10v0a10 10 0 0 0 10 10"></path><g>
<path d="M491.0 60h105.0"></path></g><path d="M596.0 60a10 10 0 0 0 10 -10v0a10 10 0 0 1 10 -10"></path></g><path d="M616.0 40h10"></path><g class="terminal ">
<path d="M626.0 40h0.0"></path><path d="M705.5 40h0.0"></path><rect height="22" rx="10" ry="10" width="79.5" x="626.0" y="29"></rect><text x="665.75" y="44">pattern</text></g></g><path d="M705.5 40h10"></path><path d="M 715.5 40 h 20 m -10 -10 v 20 m 10 -20 v 20"></path></g></svg>