<svg class="railroad-diagram" height="110" viewBox="0 0 798.5 110" width="798.5" xmlns="http://www.w3.org/2000/svg" xmlns:xlink="http://www.w3.org/1999/xlink">
<g transform="translate(.5 .5)">
<style>/* <![CDATA[ */
	svg.railroad-diagram {
		background-color:hsl(30,20%,95%);
	}
	svg.railroad-diagram path {
		stroke-width:3;
		stroke:black;
		fill:rgba(0,0,0,0);
	}
	svg.railroad-diagram text {
		font:bold 14px monospace;
		text-anchor:middle;
	}
	svg.railroad-diagram text.label{
		text-anchor:start;
	}
	svg.railroad-diagram text.comment{
		font:italic 12px monospace;
	}
	svg.railroad-diagram rect{
		stroke-width:3;
		stroke:black;
		fill:hsl(120,100%,90%);
	}
	svg.railroad-diagram rect.group-box {
		stroke: gray;
		stroke-dasharray: 10 5;
		fill: none;
	}

/* ]]> */
</style><g>
<path d="M20 30v20m10 -20v20m-10 -10h120.5"></path><text style="text-anchor:start" x="20" y="25">selector&#95;expr</text></g><g>
<path d="M140.5 40h0.0"></path><path d="M758.5 40h0.0"></path><path d="M140.5 40h20"></path><g>
<path d="M160.5 40h0.0"></path><path d="M738.5 40h0.0"></path><g class="terminal ">
<path d="M160.5 40h0.0"></path><path d="M223.0 40h0.0"></path><rect height="22" rx="10" ry="10" width="62.5" x="160.5" y="29"></rect><text x="191.75" y="44">'rec'</text></g><path d="M223.0 40h10"></path><path d="M233.0 40h10"></path><g class="terminal ">
<path d="M243.0 40h0.0"></path><path d="M288.5 40h0.0"></path><rect height="22" rx="10" ry="10" width="45.5" x="243.0" y="29"></rect><text x="265.75" y="44">'('</text></g><path d="M288.5 40h10"></path><g>
<path d="M298.5 40h0.0"></path><path d="M384.0 40h0.0"></path><path d="M298.5 40a10 10 0 0 0 10 -10v0a10 10 0 0 1 10 -10"></path><g>
<path d="M318.5 20h45.5"></path></g><path d="M364.0 20a10 10 0 0 1 10 10v0a10 10 0 0 0 10 10"></path><path d="M298.5 40h20"></path><g class="terminal ">
<path d="M318.5 40h0.0"></path><path d="M364.0 40h0.0"></path><rect height="22" rx="10" ry="10" width="45.5" x="318.5" y="29"></rect><text x="341.25" y="44">'&#42;'</text></g><path d="M364.0 40h20"></path></g><path d="M384.0 40h10"></path><g class="terminal ">
<path d="M394.0 40h0.0"></path><path d="M448.0 40h0.0"></path><rect height="22" rx="10" ry="10" width="54.0" x="394.0" y="29"></rect><text x="421.0" y="44">expr</text></g><path d="M448.0 40h10"></path><path d="M458.0 40h10"></path><g class="terminal ">
<path d="M468.0 40h0.0"></path><path d="M513.5 40h0.0"></path><rect height="22" rx="10" ry="10" width="45.5" x="468.0" y="29"></rect><text x="490.75" y="44">','</text></g><path d="M513.5 40h10"></path><g>
<path d="M523.5 40h0.0"></path><path d="M609.0 40h0.0"></path><path d="M523.5 40a10 10 0 0 0 10 -10v0a10 10 0 0 1 10 -10"></path><g>
<path d="M543.5 20h45.5"></path></g><path d="M589.0 20a10 10 0 0 1 10 10v0a10 10 0 0 0 10 10"></path><path d="M523.5 40h20"></path><g class="terminal ">
<path d="M543.5 40h0.0"></path><path d="M589.0 40h0.0"></path><rect height="22" rx="10" ry="10" width="45.5" x="543.5" y="29"></rect><text x="566.25" y="44">'&#42;'</text></g><path d="M589.0 40h20"></path></g><path d="M609.0 40h10"></path><g class="terminal ">
<path d="M619.0 40h0.0"></path><path d="M673.0 40h0.0"></path><rect height="22" rx="10" ry="10" width="54.0" x="619.0" y="29"></rect><text x="646.0" y="44">expr</text></g><path d="M673.0 40h10"></path><path d="M683.0 40h10"></path><g class="terminal ">
<path d="M693.0 40h0.0"></path><path d="M738.5 40h0.0"></path><rect height="22" rx="10" ry="10" width="45.5" x="693.0" y="29"></rect><text x="715.75" y="44">')'</text></g></g><path d="M738.5 40h20"></path><path d="M140.5 40a10 10 0 0 1 10 10v19a10 10 0 0 0 10 10"></path><g>
<path d="M160.5 79h112.5"></path><path d="M626.0 79h112.5"></path><g class="terminal ">
<path d="M273.0 79h0.0"></path><path d="M335.5 79h0.0"></path><rect height="22" rx="10" ry="10" width="62.5" x="273.0" y="68"></rect><text x="304.25" y="83">'rec'</text></g><path d="M335.5 79h10"></path><path d="M345.5 79h10"></path><g class="terminal ">
<path d="M355.5 79h0.0"></path><path d="M401.0 79h0.0"></path><rect height="22" rx="10" ry="10" width="45.5" x="355.5" y="68"></rect><text x="378.25" y="83">'('</text></g><path d="M401.0 79h10"></path><g>
<path d="M411.0 79h0.0"></path><path d="M496.5 79h0.0"></path><path d="M411.0 79a10 10 0 0 0 10 -10v0a10 10 0 0 1 10 -10"></path><g>
<path d="M431.0 59h45.5"></path></g><path d="M476.5 59a10 10 0 0 1 10 10v0a10 10 0 0 0 10 10"></path><path d="M411.0 79h20"></path><g class="terminal ">
<path d="M431.0 79h0.0"></path><path d="M476.5 79h0.0"></path><rect height="22" rx="10" ry="10" width="45.5" x="431.0" y="68"></rect><text x="453.75" y="83">'&#42;'</text></g><path d="M476.5 79h20"></path></g><path d="M496.5 79h10"></path><g class="terminal ">
<path d="M506.5 79h0.0"></path><path d="M560.5 79h0.0"></path><rect height="22" rx="10" ry="10" width="54.0" x="506.5" y="68"></rect><text x="533.5" y="83">expr</text></g><path d="M560.5 79h10"></path><path d="M570.5 79h10"></path><g class="terminal ">
<path d="M580.5 79h0.0"></path><path d="M626.0 79h0.0"></path><rect height="22" rx="10" ry="10" width="45.5" x="580.5" y="68"></rect><text x="603.25" y="83">')'</text></g></g><path d="M738.5 79a10 10 0 0 0 10 -10v-19a10 10 0 0 1 10 -10"></path></g><path d="M 758.5 40 h 20 m -10 -10 v 20 m 10 -20 v 20"></path></g></svg>