<svg class="railroad-diagram" height="71" viewBox="0 0 415.5 71" width="415.5" xmlns="http://www.w3.org/2000/svg" xmlns:xlink="http://www.w3.org/1999/xlink">
<g transform="translate(.5 .5)">
<style>/* <![CDATA[ */
	svg.railroad-diagram {
		background-color:hsl(30,20%,95%);
	}
	svg.railroad-diagram path {
		stroke-width:3;
		stroke:black;
		fill:rgba(0,0,0,0);
	}
	svg.railroad-diagram text {
		font:bold 14px monospace;
		text-anchor:middle;
	}
	svg.railroad-diagram text.label{
		text-anchor:start;
	}
	svg.railroad-diagram text.comment{
		font:italic 12px monospace;
	}
	svg.railroad-diagram rect{
		stroke-width:3;
		stroke:black;
		fill:hsl(120,100%,90%);
	}
	svg.railroad-diagram rect.group-box {
		stroke: gray;
		stroke-dasharray: 10 5;
		fill: none;
	}

/* ]]> */
</style><g>
<path d="M20 30v20m10 -20v20m-10 -10h120.5"></path><text style="text-anchor:start" x="20" y="25">splat&#95;pattern</text></g><path d="M140.5 40h10"></path><g>
<path d="M150.5 40h0.0"></path><path d="M365.5 40h0.0"></path><g>
<path d="M150.5 40h0.0"></path><path d="M293.0 40h0.0"></path><path d="M150.5 40a10 10 0 0 0 10 -10v0a10 10 0 0 1 10 -10"></path><g>
<path d="M170.5 20h102.5"></path></g><path d="M273.0 20a10 10 0 0 1 10 10v0a10 10 0 0 0 10 10"></path><path d="M150.5 40h20"></path><g>
<path d="M170.5 40h0.0"></path><path d="M273.0 40h0.0"></path><g class="terminal ">
<path d="M170.5 40h0.0"></path><path d="M207.5 40h0.0"></path><rect height="22" rx="10" ry="10" width="37.0" x="170.5" y="29"></rect><text x="189.0" y="44">id</text></g><path d="M207.5 40h10"></path><path d="M217.5 40h10"></path><g class="terminal ">
<path d="M227.5 40h0.0"></path><path d="M273.0 40h0.0"></path><rect height="22" rx="10" ry="10" width="45.5" x="227.5" y="29"></rect><text x="250.25" y="44">'@'</text></g></g><path d="M273.0 40h20"></path></g><path d="M293.0 40h10"></path><g class="terminal ">
<path d="M303.0 40h0.0"></path><path d="M365.5 40h0.0"></path><rect height="22" rx="10" ry="10" width="62.5" x="303.0" y="29"></rect><text x="334.25" y="44">'...'</text></g></g><path d="M365.5 40h10"></path><path d="M 375.5 40 h 20 m -10 -10 v 20 m 10 -20 v 20"></path></g></svg>