<svg class="railroad-diagram" height="572" viewBox="0 0 334.0 572" width="334.0" xmlns="http://www.w3.org/2000/svg" xmlns:xlink="http://www.w3.org/1999/xlink">
<g transform="translate(.5 .5)">
<style>/* <![CDATA[ */
	svg.railroad-diagram {
		background-color:hsl(30,20%,95%);
	}
	svg.railroad-diagram path {
		stroke-width:3;
		stroke:black;
		fill:rgba(0,0,0,0);
	}
	svg.railroad-diagram text {
		font:bold 14px monospace;
		text-anchor:middle;
	}
	svg.railroad-diagram text.label{
		text-anchor:start;
	}
	svg.railroad-diagram text.comment{
		font:italic 12px monospace;
	}
	svg.railroad-diagram rect{
		stroke-width:3;
		stroke:black;
		fill:hsl(120,100%,90%);
	}
	svg.railroad-diagram rect.group-box {
		stroke: gray;
		stroke-dasharray: 10 5;
		fill: none;
	}

/* ]]> */
</style><g>
<path d="M20 21v20m10 -20v20m-10 -10h44.0"></path><text style="text-anchor:start" x="20" y="16">term</text></g><g>
<path d="M64.0 31h0.0"></path><path d="M294.0 31h0.0"></path><path d="M64.0 31h20"></path><g class="terminal ">
<path d="M84.0 31h63.75"></path><path d="M210.25 31h63.75"></path><rect height="22" rx="10" ry="10" width="62.5" x="147.75" y="20"></rect><text x="179.0" y="35">query</text></g><path d="M274.0 31h20"></path><path d="M64.0 31a10 10 0 0 1 10 10v10a10 10 0 0 0 10 10"></path><g class="terminal ">
<path d="M84.0 61h51.0"></path><path d="M223.0 61h51.0"></path><rect height="22" rx="10" ry="10" width="88.0" x="135.0" y="50"></rect><text x="179.0" y="65">listcomp</text></g><path d="M274.0 61a10 10 0 0 0 10 -10v-10a10 10 0 0 1 10 -10"></path><path d="M64.0 31a10 10 0 0 1 10 10v40a10 10 0 0 0 10 10"></path><g class="terminal ">
<path d="M84.0 91h55.25"></path><path d="M218.75 91h55.25"></path><rect height="22" rx="10" ry="10" width="79.5" x="139.25" y="80"></rect><text x="179.0" y="95">listlit</text></g><path d="M274.0 91a10 10 0 0 0 10 -10v-40a10 10 0 0 1 10 -10"></path><path d="M64.0 31a10 10 0 0 1 10 10v70a10 10 0 0 0 10 10"></path><g class="terminal ">
<path d="M84.0 121h46.75"></path><path d="M227.25 121h46.75"></path><rect height="22" rx="10" ry="10" width="96.5" x="130.75" y="110"></rect><text x="179.0" y="125">objectlit</text></g><path d="M274.0 121a10 10 0 0 0 10 -10v-70a10 10 0 0 1 10 -10"></path><path d="M64.0 31a10 10 0 0 1 10 10v100a10 10 0 0 0 10 10"></path><g class="terminal ">
<path d="M84.0 151h29.75"></path><path d="M244.25 151h29.75"></path><rect height="22" rx="10" ry="10" width="130.5" x="113.75" y="140"></rect><text x="179.0" y="155">at&#95;object&#95;lit</text></g><path d="M274.0 151a10 10 0 0 0 10 -10v-100a10 10 0 0 1 10 -10"></path><path d="M64.0 31a10 10 0 0 1 10 10v130a10 10 0 0 0 10 10"></path><g class="terminal ">
<path d="M84.0 181h42.5"></path><path d="M231.5 181h42.5"></path><rect height="22" rx="10" ry="10" width="105.0" x="126.5" y="170"></rect><text x="179.0" y="185">match&#95;expr</text></g><path d="M274.0 181a10 10 0 0 0 10 -10v-130a10 10 0 0 1 10 -10"></path><path d="M64.0 31a10 10 0 0 1 10 10v160a10 10 0 0 0 10 10"></path><g class="terminal ">
<path d="M84.0 211h76.5"></path><path d="M197.5 211h76.5"></path><rect height="22" rx="10" ry="10" width="37.0" x="160.5" y="200"></rect><text x="179.0" y="215">id</text></g><path d="M274.0 211a10 10 0 0 0 10 -10v-160a10 10 0 0 1 10 -10"></path><path d="M64.0 31a10 10 0 0 1 10 10v190a10 10 0 0 0 10 10"></path><g class="terminal ">
<path d="M84.0 241h25.5"></path><path d="M248.5 241h25.5"></path><rect height="22" rx="10" ry="10" width="139.0" x="109.5" y="230"></rect><text x="179.0" y="245">string&#95;literal</text></g><path d="M274.0 241a10 10 0 0 0 10 -10v-190a10 10 0 0 1 10 -10"></path><path d="M64.0 31a10 10 0 0 1 10 10v220a10 10 0 0 0 10 10"></path><g class="terminal ">
<path d="M84.0 271h0.0"></path><path d="M274.0 271h0.0"></path><rect height="22" rx="10" ry="10" width="190.0" x="84.0" y="260"></rect><text x="179.0" y="275">block&#95;string&#95;literal</text></g><path d="M274.0 271a10 10 0 0 0 10 -10v-220a10 10 0 0 1 10 -10"></path><path d="M64.0 31a10 10 0 0 1 10 10v250a10 10 0 0 0 10 10"></path><g class="terminal ">
<path d="M84.0 301h34.0"></path><path d="M240.0 301h34.0"></path><rect height="22" rx="10" ry="10" width="122.0" x="118.0" y="290"></rect><text x="179.0" y="305">bool&#95;literal</text></g><path d="M274.0 301a10 10 0 0 0 10 -10v-250a10 10 0 0 1 10 -10"></path><path d="M64.0 31a10 10 0 0 1 10 10v280a10 10 0 0 0 10 10"></path><g>
<path d="M84.0 331h59.5"></path><path d="M214.5 331h59.5"></path><g class="terminal ">
<path d="M143.5 331h0.0"></path><path d="M214.5 331h0.0"></path><rect height="22" rx="10" ry="10" width="71.0" x="143.5" y="320"></rect><text x="179.0" y="335">'null'</text></g></g><path d="M274.0 331a10 10 0 0 0 10 -10v-280a10 10 0 0 1 10 -10"></path><path d="M64.0 31a10 10 0 0 1 10 10v310a10 10 0 0 0 10 10"></path><g class="terminal ">
<path d="M84.0 361h55.25"></path><path d="M218.75 361h55.25"></path><rect height="22" rx="10" ry="10" width="79.5" x="139.25" y="350"></rect><text x="179.0" y="365">integer</text></g><path d="M274.0 361a10 10 0 0 0 10 -10v-310a10 10 0 0 1 10 -10"></path><path d="M64.0 31a10 10 0 0 1 10 10v340a10 10 0 0 0 10 10"></path><g class="terminal ">
<path d="M84.0 391h8.5"></path><path d="M265.5 391h8.5"></path><rect height="22" rx="10" ry="10" width="173.0" x="92.5" y="380"></rect><text x="179.0" y="395">anonymous&#95;function</text></g><path d="M274.0 391a10 10 0 0 0 10 -10v-340a10 10 0 0 1 10 -10"></path><path d="M64.0 31a10 10 0 0 1 10 10v370a10 10 0 0 0 10 10"></path><g class="terminal ">
<path d="M84.0 421h34.0"></path><path d="M240.0 421h34.0"></path><rect height="22" rx="10" ry="10" width="122.0" x="118.0" y="410"></rect><text x="179.0" y="425">unit&#95;literal</text></g><path d="M274.0 421a10 10 0 0 0 10 -10v-370a10 10 0 0 1 10 -10"></path><path d="M64.0 31a10 10 0 0 1 10 10v400a10 10 0 0 0 10 10"></path><g>
<path d="M84.0 451h2.5"></path><path d="M271.5 451h2.5"></path><g class="terminal ">
<path d="M86.5 451h0.0"></path><path d="M132.0 451h0.0"></path><rect height="22" rx="10" ry="10" width="45.5" x="86.5" y="440"></rect><text x="109.25" y="455">'('</text></g><path d="M132.0 451h10"></path><path d="M142.0 451h10"></path><g class="terminal ">
<path d="M152.0 451h0.0"></path><path d="M206.0 451h0.0"></path><rect height="22" rx="10" ry="10" width="54.0" x="152.0" y="440"></rect><text x="179.0" y="455">expr</text></g><path d="M206.0 451h10"></path><path d="M216.0 451h10"></path><g class="terminal ">
<path d="M226.0 451h0.0"></path><path d="M271.5 451h0.0"></path><rect height="22" rx="10" ry="10" width="45.5" x="226.0" y="440"></rect><text x="248.75" y="455">')'</text></g></g><path d="M274.0 451a10 10 0 0 0 10 -10v-400a10 10 0 0 1 10 -10"></path><path d="M64.0 31a10 10 0 0 1 10 10v430a10 10 0 0 0 10 10"></path><g class="terminal ">
<path d="M84.0 481h34.0"></path><path d="M240.0 481h34.0"></path><rect height="22" rx="10" ry="10" width="122.0" x="118.0" y="470"></rect><text x="179.0" y="485">if&#95;then&#95;else</text></g><path d="M274.0 481a10 10 0 0 0 10 -10v-430a10 10 0 0 1 10 -10"></path><path d="M64.0 31a10 10 0 0 1 10 10v460a10 10 0 0 0 10 10"></path><g class="terminal ">
<path d="M84.0 511h42.5"></path><path d="M231.5 511h42.5"></path><rect height="22" rx="10" ry="10" width="105.0" x="126.5" y="500"></rect><text x="179.0" y="515">block&#95;expr</text></g><path d="M274.0 511a10 10 0 0 0 10 -10v-460a10 10 0 0 1 10 -10"></path><path d="M64.0 31a10 10 0 0 1 10 10v490a10 10 0 0 0 10 10"></path><g class="terminal ">
<path d="M84.0 541h42.5"></path><path d="M231.5 541h42.5"></path><rect height="22" rx="10" ry="10" width="105.0" x="126.5" y="530"></rect><text x="179.0" y="545">tuple&#95;expr</text></g><path d="M274.0 541a10 10 0 0 0 10 -10v-490a10 10 0 0 1 10 -10"></path></g><path d="M 294.0 31 h 20 m -10 -10 v 20 m 10 -20 v 20"></path></g></svg>