<svg class="railroad-diagram" height="92" viewBox="0 0 380.0 92" width="380.0" xmlns="http://www.w3.org/2000/svg">
<g transform="translate(.5 .5)">
<style>/* <![CDATA[ */
	svg.railroad-diagram {
		background-color:hsl(30,20%,95%);
	}
	svg.railroad-diagram path {
		stroke-width:3;
		stroke:black;
		fill:rgba(0,0,0,0);
	}
	svg.railroad-diagram text {
		font:bold 14px monospace;
		text-anchor:middle;
	}
	svg.railroad-diagram text.label{
		text-anchor:start;
	}
	svg.railroad-diagram text.comment{
		font:italic 12px monospace;
	}
	svg.railroad-diagram rect{
		stroke-width:3;
		stroke:black;
		fill:hsl(120,100%,90%);
	}
	svg.railroad-diagram rect.group-box {
		stroke: gray;
		stroke-dasharray: 10 5;
		fill: none;
	}

/* ]]> */
</style><g>
<path d="M20 21v20m10 -20v20m-10 -10h95.0"></path><text style="text-anchor:start" x="20" y="16">tuple&#95;expr</text></g><path d="M115.0 31h10"></path><g>
<path d="M125.0 31h0.0"></path><path d="M330.0 31h0.0"></path><g class="terminal ">
<path d="M125.0 31h0.0"></path><path d="M170.5 31h0.0"></path><rect height="22" rx="10" ry="10" width="45.5" x="125.0" y="20"></rect><text x="147.75" y="35">'('</text></g><path d="M170.5 31h10"></path><path d="M180.5 31h10"></path><g>
<path d="M190.5 31h0.0"></path><path d="M264.5 31h0.0"></path><path d="M190.5 31h10"></path><g class="terminal ">
<path d="M200.5 31h0.0"></path><path d="M254.5 31h0.0"></path><rect height="22" rx="10" ry="10" width="54.0" x="200.5" y="20"></rect><text x="227.5" y="35">expr</text></g><path d="M254.5 31h10"></path><path d="M200.5 31a10 10 0 0 0 -10 10v10a10 10 0 0 0 10 10"></path><g class="terminal ">
<path d="M200.5 61h4.25"></path><path d="M250.25 61h4.25"></path><rect height="22" rx="10" ry="10" width="45.5" x="204.75" y="50"></rect><text x="227.5" y="65">','</text></g><path d="M254.5 61a10 10 0 0 0 10 -10v-10a10 10 0 0 0 -10 -10"></path></g><path d="M264.5 31h10"></path><path d="M274.5 31h10"></path><g class="terminal ">
<path d="M284.5 31h0.0"></path><path d="M330.0 31h0.0"></path><rect height="22" rx="10" ry="10" width="45.5" x="284.5" y="20"></rect><text x="307.25" y="35">')'</text></g></g><path d="M330.0 31h10"></path><path d="M 340.0 31 h 20 m -10 -10 v 20 m 10 -20 v 20"></path></g></svg>