<svg class="railroad-diagram" height="92" viewBox="0 0 499.0 92" width="499.0" xmlns="http://www.w3.org/2000/svg" xmlns:xlink="http://www.w3.org/1999/xlink">
<g transform="translate(.5 .5)">
<style>/* <![CDATA[ */
	svg.railroad-diagram {
		background-color:hsl(30,20%,95%);
	}
	svg.railroad-diagram path {
		stroke-width:3;
		stroke:black;
		fill:rgba(0,0,0,0);
	}
	svg.railroad-diagram text {
		font:bold 14px monospace;
		text-anchor:middle;
	}
	svg.railroad-diagram text.label{
		text-anchor:start;
	}
	svg.railroad-diagram text.comment{
		font:italic 12px monospace;
	}
	svg.railroad-diagram rect{
		stroke-width:3;
		stroke:black;
		fill:hsl(120,100%,90%);
	}
	svg.railroad-diagram rect.group-box {
		stroke: gray;
		stroke-dasharray: 10 5;
		fill: none;
	}

/* ]]> */
</style><g>
<path d="M20 21v20m10 -20v20m-10 -10h120.5"></path><text style="text-anchor:start" x="20" y="16">tuple&#95;pattern</text></g><path d="M140.5 31h10"></path><g>
<path d="M150.5 31h0.0"></path><path d="M449.0 31h0.0"></path><g class="terminal ">
<path d="M150.5 31h0.0"></path><path d="M196.0 31h0.0"></path><rect height="22" rx="10" ry="10" width="45.5" x="150.5" y="20"></rect><text x="173.25" y="35">'('</text></g><path d="M196.0 31h10"></path><path d="M206.0 31h10"></path><g>
<path d="M216.0 31h0.0"></path><path d="M383.5 31h0.0"></path><path d="M216.0 31h10"></path><g class="terminal ">
<path d="M226.0 31h0.0"></path><path d="M373.5 31h0.0"></path><rect height="22" rx="10" ry="10" width="147.5" x="226.0" y="20"></rect><text x="299.75" y="35">binding&#95;pattern</text></g><path d="M373.5 31h10"></path><path d="M226.0 31a10 10 0 0 0 -10 10v10a10 10 0 0 0 10 10"></path><g class="terminal ">
<path d="M226.0 61h51.0"></path><path d="M322.5 61h51.0"></path><rect height="22" rx="10" ry="10" width="45.5" x="277.0" y="50"></rect><text x="299.75" y="65">','</text></g><path d="M373.5 61a10 10 0 0 0 10 -10v-10a10 10 0 0 0 -10 -10"></path></g><path d="M383.5 31h10"></path><path d="M393.5 31h10"></path><g class="terminal ">
<path d="M403.5 31h0.0"></path><path d="M449.0 31h0.0"></path><rect height="22" rx="10" ry="10" width="45.5" x="403.5" y="20"></rect><text x="426.25" y="35">')'</text></g></g><path d="M449.0 31h10"></path><path d="M 459.0 31 h 20 m -10 -10 v 20 m 10 -20 v 20"></path></g></svg>