<svg class="railroad-diagram" height="302" viewBox="0 0 745.5 302" width="745.5" xmlns="http://www.w3.org/2000/svg" xmlns:xlink="http://www.w3.org/1999/xlink">
<g transform="translate(.5 .5)">
<style>/* <![CDATA[ */
	svg.railroad-diagram {
		background-color:hsl(30,20%,95%);
	}
	svg.railroad-diagram path {
		stroke-width:3;
		stroke:black;
		fill:rgba(0,0,0,0);
	}
	svg.railroad-diagram text {
		font:bold 14px monospace;
		text-anchor:middle;
	}
	svg.railroad-diagram text.label{
		text-anchor:start;
	}
	svg.railroad-diagram text.comment{
		font:italic 12px monospace;
	}
	svg.railroad-diagram rect{
		stroke-width:3;
		stroke:black;
		fill:hsl(120,100%,90%);
	}
	svg.railroad-diagram rect.group-box {
		stroke: gray;
		stroke-dasharray: 10 5;
		fill: none;
	}

/* ]]> */
</style><g>
<path d="M20 21v20m10 -20v20m-10 -10h120.5"></path><text style="text-anchor:start" x="20" y="16">value&#95;pattern</text></g><g>
<path d="M140.5 31h0.0"></path><path d="M705.5 31h0.0"></path><path d="M140.5 31h20"></path><g>
<path d="M160.5 31h0.0"></path><path d="M685.5 31h0.0"></path><g>
<path d="M160.5 31h0.0"></path><path d="M411.0 31h0.0"></path><path d="M160.5 31h20"></path><g>
<path d="M180.5 31h82.5"></path><path d="M308.5 31h82.5"></path><g class="terminal ">
<path d="M263.0 31h0.0"></path><path d="M308.5 31h0.0"></path><rect height="22" rx="10" ry="10" width="45.5" x="263.0" y="20"></rect><text x="285.75" y="35">'&#42;'</text></g></g><path d="M391.0 31h20"></path><path d="M160.5 31a10 10 0 0 1 10 10v10a10 10 0 0 0 10 10"></path><g>
<path d="M180.5 61h61.25"></path><path d="M329.75 61h61.25"></path><g class="terminal ">
<path d="M241.75 61h0.0"></path><path d="M329.75 61h0.0"></path><rect height="22" rx="10" ry="10" width="88.0" x="241.75" y="50"></rect><text x="285.75" y="65">upper&#95;id</text></g></g><path d="M391.0 61a10 10 0 0 0 10 -10v-10a10 10 0 0 1 10 -10"></path><path d="M160.5 31a10 10 0 0 1 10 10v40a10 10 0 0 0 10 10"></path><g>
<path d="M180.5 91h0.0"></path><path d="M391.0 91h0.0"></path><g class="terminal ">
<path d="M180.5 91h0.0"></path><path d="M226.0 91h0.0"></path><rect height="22" rx="10" ry="10" width="45.5" x="180.5" y="80"></rect><text x="203.25" y="95">'('</text></g><path d="M226.0 91h10"></path><path d="M236.0 91h10"></path><g class="terminal ">
<path d="M246.0 91h0.0"></path><path d="M325.5 91h0.0"></path><rect height="22" rx="10" ry="10" width="79.5" x="246.0" y="80"></rect><text x="285.75" y="95">pattern</text></g><path d="M325.5 91h10"></path><path d="M335.5 91h10"></path><g class="terminal ">
<path d="M345.5 91h0.0"></path><path d="M391.0 91h0.0"></path><rect height="22" rx="10" ry="10" width="45.5" x="345.5" y="80"></rect><text x="368.25" y="95">')'</text></g></g><path d="M391.0 91a10 10 0 0 0 10 -10v-40a10 10 0 0 1 10 -10"></path></g><path d="M411.0 31h10"></path><g>
<path d="M421.0 31h0.0"></path><path d="M685.5 31h0.0"></path><g class="terminal ">
<path d="M421.0 31h0.0"></path><path d="M466.5 31h0.0"></path><rect height="22" rx="10" ry="10" width="45.5" x="421.0" y="20"></rect><text x="443.75" y="35">'('</text></g><path d="M466.5 31h10"></path><path d="M476.5 31h10"></path><g>
<path d="M486.5 31h0.0"></path><path d="M620.0 31h0.0"></path><path d="M486.5 31h10"></path><g class="terminal ">
<path d="M496.5 31h0.0"></path><path d="M610.0 31h0.0"></path><rect height="22" rx="10" ry="10" width="113.5" x="496.5" y="20"></rect><text x="553.25" y="35">pattern&#95;arg</text></g><path d="M610.0 31h10"></path><path d="M496.5 31a10 10 0 0 0 -10 10v10a10 10 0 0 0 10 10"></path><g class="terminal ">
<path d="M496.5 61h34.0"></path><path d="M576.0 61h34.0"></path><rect height="22" rx="10" ry="10" width="45.5" x="530.5" y="50"></rect><text x="553.25" y="65">','</text></g><path d="M610.0 61a10 10 0 0 0 10 -10v-10a10 10 0 0 0 -10 -10"></path></g><path d="M620.0 31h10"></path><path d="M630.0 31h10"></path><g class="terminal ">
<path d="M640.0 31h0.0"></path><path d="M685.5 31h0.0"></path><rect height="22" rx="10" ry="10" width="45.5" x="640.0" y="20"></rect><text x="662.75" y="35">')'</text></g></g></g><path d="M685.5 31h20"></path><path d="M140.5 31a10 10 0 0 1 10 10v70a10 10 0 0 0 10 10"></path><g>
<path d="M160.5 121h218.5"></path><path d="M467.0 121h218.5"></path><g class="terminal ">
<path d="M379.0 121h0.0"></path><path d="M467.0 121h0.0"></path><rect height="22" rx="10" ry="10" width="88.0" x="379.0" y="110"></rect><text x="423.0" y="125">upper&#95;id</text></g></g><path d="M685.5 121a10 10 0 0 0 10 -10v-70a10 10 0 0 1 10 -10"></path><path d="M140.5 31a10 10 0 0 1 10 10v100a10 10 0 0 0 10 10"></path><g>
<path d="M160.5 151h239.75"></path><path d="M445.75 151h239.75"></path><g class="terminal ">
<path d="M400.25 151h0.0"></path><path d="M445.75 151h0.0"></path><rect height="22" rx="10" ry="10" width="45.5" x="400.25" y="140"></rect><text x="423.0" y="155">'&#42;'</text></g></g><path d="M685.5 151a10 10 0 0 0 10 -10v-100a10 10 0 0 1 10 -10"></path><path d="M140.5 31a10 10 0 0 1 10 10v130a10 10 0 0 0 10 10"></path><g>
<path d="M160.5 181h227.0"></path><path d="M458.5 181h227.0"></path><g class="terminal ">
<path d="M387.5 181h0.0"></path><path d="M458.5 181h0.0"></path><rect height="22" rx="10" ry="10" width="71.0" x="387.5" y="170"></rect><text x="423.0" y="185">'null'</text></g></g><path d="M685.5 181a10 10 0 0 0 10 -10v-130a10 10 0 0 1 10 -10"></path><path d="M140.5 31a10 10 0 0 1 10 10v160a10 10 0 0 0 10 10"></path><g>
<path d="M160.5 211h227.0"></path><path d="M458.5 211h227.0"></path><g class="terminal ">
<path d="M387.5 211h0.0"></path><path d="M458.5 211h0.0"></path><rect height="22" rx="10" ry="10" width="71.0" x="387.5" y="200"></rect><text x="423.0" y="215">String</text></g></g><path d="M685.5 211a10 10 0 0 0 10 -10v-160a10 10 0 0 1 10 -10"></path><path d="M140.5 31a10 10 0 0 1 10 10v190a10 10 0 0 0 10 10"></path><g>
<path d="M160.5 241h156.0"></path><path d="M529.5 241h156.0"></path><g class="terminal ">
<path d="M316.5 241h0.0"></path><path d="M379.0 241h0.0"></path><rect height="22" rx="10" ry="10" width="62.5" x="316.5" y="230"></rect><text x="347.75" y="245">'not'</text></g><path d="M379.0 241h10"></path><path d="M389.0 241h10"></path><g class="terminal ">
<path d="M399.0 241h0.0"></path><path d="M529.5 241h0.0"></path><rect height="22" rx="10" ry="10" width="130.5" x="399.0" y="230"></rect><text x="464.25" y="245">value&#95;pattern</text></g></g><path d="M685.5 241a10 10 0 0 0 10 -10v-190a10 10 0 0 1 10 -10"></path><path d="M140.5 31a10 10 0 0 1 10 10v220a10 10 0 0 0 10 10"></path><g>
<path d="M160.5 271h157.25"></path><path d="M528.25 271h157.25"></path><g class="terminal ">
<path d="M317.75 271h0.0"></path><path d="M363.25 271h0.0"></path><rect height="22" rx="10" ry="10" width="45.5" x="317.75" y="260"></rect><text x="340.5" y="275">'('</text></g><path d="M363.25 271h10"></path><path d="M373.25 271h10"></path><g class="terminal ">
<path d="M383.25 271h0.0"></path><path d="M462.75 271h0.0"></path><rect height="22" rx="10" ry="10" width="79.5" x="383.25" y="260"></rect><text x="423.0" y="275">pattern</text></g><path d="M462.75 271h10"></path><path d="M472.75 271h10"></path><g class="terminal ">
<path d="M482.75 271h0.0"></path><path d="M528.25 271h0.0"></path><rect height="22" rx="10" ry="10" width="45.5" x="482.75" y="260"></rect><text x="505.5" y="275">')'</text></g></g><path d="M685.5 271a10 10 0 0 0 10 -10v-220a10 10 0 0 1 10 -10"></path></g><path d="M 705.5 31 h 20 m -10 -10 v 20 m 10 -20 v 20"></path></g></svg>