<svg class="railroad-diagram" height="491" viewBox="0 0 771.0 491" width="771.0" xmlns="http://www.w3.org/2000/svg" xmlns:xlink="http://www.w3.org/1999/xlink">
<g transform="translate(.5 .5)">
<style>/* <![CDATA[ */
	svg.railroad-diagram {
		background-color:hsl(30,20%,95%);
	}
	svg.railroad-diagram path {
		stroke-width:3;
		stroke:black;
		fill:rgba(0,0,0,0);
	}
	svg.railroad-diagram text {
		font:bold 14px monospace;
		text-anchor:middle;
	}
	svg.railroad-diagram text.label{
		text-anchor:start;
	}
	svg.railroad-diagram text.comment{
		font:italic 12px monospace;
	}
	svg.railroad-diagram rect{
		stroke-width:3;
		stroke:black;
		fill:hsl(120,100%,90%);
	}
	svg.railroad-diagram rect.group-box {
		stroke: gray;
		stroke-dasharray: 10 5;
		fill: none;
	}

/* ]]> */
</style><g>
<path d="M20 21v20m10 -20v20m-10 -10h120.5"></path><text style="text-anchor:start" x="20" y="16">value&#95;pattern</text></g><g>
<path d="M140.5 31h0.0"></path><path d="M731.0 31h0.0"></path><path d="M140.5 31h20"></path><g>
<path d="M160.5 31h0.0"></path><path d="M711.0 31h0.0"></path><g>
<path d="M160.5 31h0.0"></path><path d="M436.5 31h0.0"></path><path d="M160.5 31h20"></path><g>
<path d="M180.5 31h95.25"></path><path d="M321.25 31h95.25"></path><g class="terminal ">
<path d="M275.75 31h0.0"></path><path d="M321.25 31h0.0"></path><rect height="22" rx="10" ry="10" width="45.5" x="275.75" y="20"></rect><text x="298.5" y="35">'&#42;'</text></g></g><path d="M416.5 31h20"></path><path d="M160.5 31a10 10 0 0 1 10 10v10a10 10 0 0 0 10 10"></path><g>
<path d="M180.5 61h74.0"></path><path d="M342.5 61h74.0"></path><g class="terminal ">
<path d="M254.5 61h0.0"></path><path d="M342.5 61h0.0"></path><rect height="22" rx="10" ry="10" width="88.0" x="254.5" y="50"></rect><text x="298.5" y="65">upper&#95;id</text></g></g><path d="M416.5 61a10 10 0 0 0 10 -10v-10a10 10 0 0 1 10 -10"></path><path d="M160.5 31a10 10 0 0 1 10 10v40a10 10 0 0 0 10 10"></path><g>
<path d="M180.5 91h0.0"></path><path d="M416.5 91h0.0"></path><g class="terminal ">
<path d="M180.5 91h0.0"></path><path d="M226.0 91h0.0"></path><rect height="22" rx="10" ry="10" width="45.5" x="180.5" y="80"></rect><text x="203.25" y="95">'('</text></g><path d="M226.0 91h10"></path><path d="M236.0 91h10"></path><g class="terminal ">
<path d="M246.0 91h0.0"></path><path d="M351.0 91h0.0"></path><rect height="22" rx="10" ry="10" width="105.0" x="246.0" y="80"></rect><text x="298.5" y="95">or&#95;pattern</text></g><path d="M351.0 91h10"></path><path d="M361.0 91h10"></path><g class="terminal ">
<path d="M371.0 91h0.0"></path><path d="M416.5 91h0.0"></path><rect height="22" rx="10" ry="10" width="45.5" x="371.0" y="80"></rect><text x="393.75" y="95">')'</text></g></g><path d="M416.5 91a10 10 0 0 0 10 -10v-40a10 10 0 0 1 10 -10"></path></g><path d="M436.5 31h10"></path><g>
<path d="M446.5 31h0.0"></path><path d="M711.0 31h0.0"></path><g class="terminal ">
<path d="M446.5 31h0.0"></path><path d="M492.0 31h0.0"></path><rect height="22" rx="10" ry="10" width="45.5" x="446.5" y="20"></rect><text x="469.25" y="35">'('</text></g><path d="M492.0 31h10"></path><path d="M502.0 31h10"></path><g>
<path d="M512.0 31h0.0"></path><path d="M645.5 31h0.0"></path><path d="M512.0 31h10"></path><g class="terminal ">
<path d="M522.0 31h0.0"></path><path d="M635.5 31h0.0"></path><rect height="22" rx="10" ry="10" width="113.5" x="522.0" y="20"></rect><text x="578.75" y="35">pattern&#95;arg</text></g><path d="M635.5 31h10"></path><path d="M522.0 31a10 10 0 0 0 -10 10v10a10 10 0 0 0 10 10"></path><g class="terminal ">
<path d="M522.0 61h34.0"></path><path d="M601.5 61h34.0"></path><rect height="22" rx="10" ry="10" width="45.5" x="556.0" y="50"></rect><text x="578.75" y="65">','</text></g><path d="M635.5 61a10 10 0 0 0 10 -10v-10a10 10 0 0 0 -10 -10"></path></g><path d="M645.5 31h10"></path><path d="M655.5 31h10"></path><g class="terminal ">
<path d="M665.5 31h0.0"></path><path d="M711.0 31h0.0"></path><rect height="22" rx="10" ry="10" width="45.5" x="665.5" y="20"></rect><text x="688.25" y="35">')'</text></g></g></g><path d="M711.0 31h20"></path><path d="M140.5 31a10 10 0 0 1 10 10v70a10 10 0 0 0 10 10"></path><g>
<path d="M160.5 121h231.25"></path><path d="M479.75 121h231.25"></path><g class="terminal ">
<path d="M391.75 121h0.0"></path><path d="M479.75 121h0.0"></path><rect height="22" rx="10" ry="10" width="88.0" x="391.75" y="110"></rect><text x="435.75" y="125">upper&#95;id</text></g></g><path d="M711.0 121a10 10 0 0 0 10 -10v-70a10 10 0 0 1 10 -10"></path><path d="M140.5 31a10 10 0 0 1 10 10v100a10 10 0 0 0 10 10"></path><g>
<path d="M160.5 151h252.5"></path><path d="M458.5 151h252.5"></path><g class="terminal ">
<path d="M413.0 151h0.0"></path><path d="M458.5 151h0.0"></path><rect height="22" rx="10" ry="10" width="45.5" x="413.0" y="140"></rect><text x="435.75" y="155">'&#42;'</text></g></g><path d="M711.0 151a10 10 0 0 0 10 -10v-100a10 10 0 0 1 10 -10"></path><path d="M140.5 31a10 10 0 0 1 10 10v130a10 10 0 0 0 10 10"></path><g>
<path d="M160.5 181h239.75"></path><path d="M471.25 181h239.75"></path><g class="terminal ">
<path d="M400.25 181h0.0"></path><path d="M471.25 181h0.0"></path><rect height="22" rx="10" ry="10" width="71.0" x="400.25" y="170"></rect><text x="435.75" y="185">'null'</text></g></g><path d="M711.0 181a10 10 0 0 0 10 -10v-130a10 10 0 0 1 10 -10"></path><path d="M140.5 31a10 10 0 0 1 10 10v160a10 10 0 0 0 10 10"></path><g class="terminal ">
<path d="M160.5 211h210.0"></path><path d="M501.0 211h210.0"></path><rect height="22" rx="10" ry="10" width="130.5" x="370.5" y="200"></rect><text x="435.75" y="215">regex&#95;pattern</text></g><path d="M711.0 211a10 10 0 0 0 10 -10v-160a10 10 0 0 1 10 -10"></path><path d="M140.5 31a10 10 0 0 1 10 10v190a10 10 0 0 0 10 10"></path><g>
<path d="M160.5 241h168.75"></path><path d="M542.25 241h168.75"></path><g class="terminal ">
<path d="M329.25 241h0.0"></path><path d="M391.75 241h0.0"></path><rect height="22" rx="10" ry="10" width="62.5" x="329.25" y="230"></rect><text x="360.5" y="245">'not'</text></g><path d="M391.75 241h10"></path><path d="M401.75 241h10"></path><g class="terminal ">
<path d="M411.75 241h0.0"></path><path d="M542.25 241h0.0"></path><rect height="22" rx="10" ry="10" width="130.5" x="411.75" y="230"></rect><text x="477.0" y="245">value&#95;pattern</text></g></g><path d="M711.0 241a10 10 0 0 0 10 -10v-190a10 10 0 0 1 10 -10"></path><path d="M140.5 31a10 10 0 0 1 10 10v220a10 10 0 0 0 10 10"></path><g class="terminal ">
<path d="M160.5 271h214.25"></path><path d="M496.75 271h214.25"></path><rect height="22" rx="10" ry="10" width="122.0" x="374.75" y="260"></rect><text x="435.75" y="275">bool&#95;pattern</text></g><path d="M711.0 271a10 10 0 0 0 10 -10v-220a10 10 0 0 1 10 -10"></path><path d="M140.5 31a10 10 0 0 1 10 10v250a10 10 0 0 0 10 10"></path><g class="terminal ">
<path d="M160.5 301h201.5"></path><path d="M509.5 301h201.5"></path><rect height="22" rx="10" ry="10" width="147.5" x="362.0" y="290"></rect><text x="435.75" y="305">integer&#95;pattern</text></g><path d="M711.0 301a10 10 0 0 0 10 -10v-250a10 10 0 0 1 10 -10"></path><path d="M140.5 31a10 10 0 0 1 10 10v280a10 10 0 0 0 10 10"></path><g class="terminal ">
<path d="M160.5 331h214.25"></path><path d="M496.75 331h214.25"></path><rect height="22" rx="10" ry="10" width="122.0" x="374.75" y="320"></rect><text x="435.75" y="335">list&#95;pattern</text></g><path d="M711.0 331a10 10 0 0 0 10 -10v-280a10 10 0 0 1 10 -10"></path><path d="M140.5 31a10 10 0 0 1 10 10v310a10 10 0 0 0 10 10"></path><g class="terminal ">
<path d="M160.5 361h205.75"></path><path d="M505.25 361h205.75"></path><rect height="22" rx="10" ry="10" width="139.0" x="366.25" y="350"></rect><text x="435.75" y="365">object&#95;pattern</text></g><path d="M711.0 361a10 10 0 0 0 10 -10v-310a10 10 0 0 1 10 -10"></path><path d="M140.5 31a10 10 0 0 1 10 10v349a10 10 0 0 0 10 10"></path><g>
<path d="M160.5 400h133.75"></path><path d="M577.25 400h133.75"></path><g class="terminal ">
<path d="M294.25 400h0.0"></path><path d="M331.25 400h0.0"></path><rect height="22" rx="10" ry="10" width="37.0" x="294.25" y="389"></rect><text x="312.75" y="404">id</text></g><path d="M331.25 400h10"></path><g>
<path d="M341.25 400h0.0"></path><path d="M577.25 400h0.0"></path><path d="M341.25 400a10 10 0 0 0 10 -10v0a10 10 0 0 1 10 -10"></path><g>
<path d="M361.25 380h196.0"></path></g><path d="M557.25 380a10 10 0 0 1 10 10v0a10 10 0 0 0 10 10"></path><path d="M341.25 400h20"></path><g>
<path d="M361.25 400h0.0"></path><path d="M557.25 400h0.0"></path><g class="terminal ">
<path d="M361.25 400h0.0"></path><path d="M406.75 400h0.0"></path><rect height="22" rx="10" ry="10" width="45.5" x="361.25" y="389"></rect><text x="384.0" y="404">'@'</text></g><path d="M406.75 400h10"></path><path d="M416.75 400h10"></path><g class="terminal ">
<path d="M426.75 400h0.0"></path><path d="M557.25 400h0.0"></path><rect height="22" rx="10" ry="10" width="130.5" x="426.75" y="389"></rect><text x="492.0" y="404">value&#95;pattern</text></g></g><path d="M557.25 400h20"></path></g></g><path d="M711.0 400a10 10 0 0 0 10 -10v-349a10 10 0 0 1 10 -10"></path><path d="M140.5 31a10 10 0 0 1 10 10v379a10 10 0 0 0 10 10"></path><g>
<path d="M160.5 430h157.25"></path><path d="M553.75 430h157.25"></path><g class="terminal ">
<path d="M317.75 430h0.0"></path><path d="M363.25 430h0.0"></path><rect height="22" rx="10" ry="10" width="45.5" x="317.75" y="419"></rect><text x="340.5" y="434">'('</text></g><path d="M363.25 430h10"></path><path d="M373.25 430h10"></path><g class="terminal ">
<path d="M383.25 430h0.0"></path><path d="M488.25 430h0.0"></path><rect height="22" rx="10" ry="10" width="105.0" x="383.25" y="419"></rect><text x="435.75" y="434">or&#95;pattern</text></g><path d="M488.25 430h10"></path><path d="M498.25 430h10"></path><g class="terminal ">
<path d="M508.25 430h0.0"></path><path d="M553.75 430h0.0"></path><rect height="22" rx="10" ry="10" width="45.5" x="508.25" y="419"></rect><text x="531.0" y="434">')'</text></g></g><path d="M711.0 430a10 10 0 0 0 10 -10v-379a10 10 0 0 1 10 -10"></path><path d="M140.5 31a10 10 0 0 1 10 10v409a10 10 0 0 0 10 10"></path><g class="terminal ">
<path d="M160.5 460h210.0"></path><path d="M501.0 460h210.0"></path><rect height="22" rx="10" ry="10" width="130.5" x="370.5" y="449"></rect><text x="435.75" y="464">tuple&#95;pattern</text></g><path d="M711.0 460a10 10 0 0 0 10 -10v-409a10 10 0 0 1 10 -10"></path></g><path d="M 731.0 31 h 20 m -10 -10 v 20 m 10 -20 v 20"></path></g></svg>