<svg class="railroad-diagram" height="332" viewBox="0 0 456.5 332" width="456.5" xmlns="http://www.w3.org/2000/svg" xmlns:xlink="http://www.w3.org/1999/xlink">
<g transform="translate(.5 .5)">
<style>/* <![CDATA[ */
	svg.railroad-diagram {
		background-color:hsl(30,20%,95%);
	}
	svg.railroad-diagram path {
		stroke-width:3;
		stroke:black;
		fill:rgba(0,0,0,0);
	}
	svg.railroad-diagram text {
		font:bold 14px monospace;
		text-anchor:middle;
	}
	svg.railroad-diagram text.label{
		text-anchor:start;
	}
	svg.railroad-diagram text.comment{
		font:italic 12px monospace;
	}
	svg.railroad-diagram rect{
		stroke-width:3;
		stroke:black;
		fill:hsl(120,100%,90%);
	}
	svg.railroad-diagram rect.group-box {
		stroke: gray;
		stroke-dasharray: 10 5;
		fill: none;
	}

/* ]]> */
</style><g>
<path d="M20 21v20m10 -20v20m-10 -10h120.5"></path><text style="text-anchor:start" x="20" y="16">value&#95;pattern</text></g><g>
<path d="M140.5 31h0.0"></path><path d="M416.5 31h0.0"></path><path d="M140.5 31h20"></path><g>
<path d="M160.5 31h74.0"></path><path d="M322.5 31h74.0"></path><g class="terminal ">
<path d="M234.5 31h0.0"></path><path d="M322.5 31h0.0"></path><rect height="22" rx="10" ry="10" width="88.0" x="234.5" y="20"></rect><text x="278.5" y="35">upper&#95;id</text></g></g><path d="M396.5 31h20"></path><path d="M140.5 31a10 10 0 0 1 10 10v10a10 10 0 0 0 10 10"></path><g>
<path d="M160.5 61h95.25"></path><path d="M301.25 61h95.25"></path><g class="terminal ">
<path d="M255.75 61h0.0"></path><path d="M301.25 61h0.0"></path><rect height="22" rx="10" ry="10" width="45.5" x="255.75" y="50"></rect><text x="278.5" y="65">'&#42;'</text></g></g><path d="M396.5 61a10 10 0 0 0 10 -10v-10a10 10 0 0 1 10 -10"></path><path d="M140.5 31a10 10 0 0 1 10 10v40a10 10 0 0 0 10 10"></path><g>
<path d="M160.5 91h82.5"></path><path d="M314.0 91h82.5"></path><g class="terminal ">
<path d="M243.0 91h0.0"></path><path d="M314.0 91h0.0"></path><rect height="22" rx="10" ry="10" width="71.0" x="243.0" y="80"></rect><text x="278.5" y="95">'null'</text></g></g><path d="M396.5 91a10 10 0 0 0 10 -10v-40a10 10 0 0 1 10 -10"></path><path d="M140.5 31a10 10 0 0 1 10 10v70a10 10 0 0 0 10 10"></path><g class="terminal ">
<path d="M160.5 121h52.75"></path><path d="M343.75 121h52.75"></path><rect height="22" rx="10" ry="10" width="130.5" x="213.25" y="110"></rect><text x="278.5" y="125">regex&#95;pattern</text></g><path d="M396.5 121a10 10 0 0 0 10 -10v-70a10 10 0 0 1 10 -10"></path><path d="M140.5 31a10 10 0 0 1 10 10v100a10 10 0 0 0 10 10"></path><g class="terminal ">
<path d="M160.5 151h57.0"></path><path d="M339.5 151h57.0"></path><rect height="22" rx="10" ry="10" width="122.0" x="217.5" y="140"></rect><text x="278.5" y="155">bool&#95;pattern</text></g><path d="M396.5 151a10 10 0 0 0 10 -10v-100a10 10 0 0 1 10 -10"></path><path d="M140.5 31a10 10 0 0 1 10 10v130a10 10 0 0 0 10 10"></path><g class="terminal ">
<path d="M160.5 181h44.25"></path><path d="M352.25 181h44.25"></path><rect height="22" rx="10" ry="10" width="147.5" x="204.75" y="170"></rect><text x="278.5" y="185">integer&#95;pattern</text></g><path d="M396.5 181a10 10 0 0 0 10 -10v-130a10 10 0 0 1 10 -10"></path><path d="M140.5 31a10 10 0 0 1 10 10v160a10 10 0 0 0 10 10"></path><g class="terminal ">
<path d="M160.5 211h57.0"></path><path d="M339.5 211h57.0"></path><rect height="22" rx="10" ry="10" width="122.0" x="217.5" y="200"></rect><text x="278.5" y="215">list&#95;pattern</text></g><path d="M396.5 211a10 10 0 0 0 10 -10v-160a10 10 0 0 1 10 -10"></path><path d="M140.5 31a10 10 0 0 1 10 10v190a10 10 0 0 0 10 10"></path><g class="terminal ">
<path d="M160.5 241h48.5"></path><path d="M348.0 241h48.5"></path><rect height="22" rx="10" ry="10" width="139.0" x="209.0" y="230"></rect><text x="278.5" y="245">object&#95;pattern</text></g><path d="M396.5 241a10 10 0 0 0 10 -10v-190a10 10 0 0 1 10 -10"></path><path d="M140.5 31a10 10 0 0 1 10 10v220a10 10 0 0 0 10 10"></path><g>
<path d="M160.5 271h0.0"></path><path d="M396.5 271h0.0"></path><g class="terminal ">
<path d="M160.5 271h0.0"></path><path d="M206.0 271h0.0"></path><rect height="22" rx="10" ry="10" width="45.5" x="160.5" y="260"></rect><text x="183.25" y="275">'('</text></g><path d="M206.0 271h10"></path><path d="M216.0 271h10"></path><g class="terminal ">
<path d="M226.0 271h0.0"></path><path d="M331.0 271h0.0"></path><rect height="22" rx="10" ry="10" width="105.0" x="226.0" y="260"></rect><text x="278.5" y="275">or&#95;pattern</text></g><path d="M331.0 271h10"></path><path d="M341.0 271h10"></path><g class="terminal ">
<path d="M351.0 271h0.0"></path><path d="M396.5 271h0.0"></path><rect height="22" rx="10" ry="10" width="45.5" x="351.0" y="260"></rect><text x="373.75" y="275">')'</text></g></g><path d="M396.5 271a10 10 0 0 0 10 -10v-220a10 10 0 0 1 10 -10"></path><path d="M140.5 31a10 10 0 0 1 10 10v250a10 10 0 0 0 10 10"></path><g class="terminal ">
<path d="M160.5 301h52.75"></path><path d="M343.75 301h52.75"></path><rect height="22" rx="10" ry="10" width="130.5" x="213.25" y="290"></rect><text x="278.5" y="305">tuple&#95;pattern</text></g><path d="M396.5 301a10 10 0 0 0 10 -10v-250a10 10 0 0 1 10 -10"></path></g><path d="M 416.5 31 h 20 m -10 -10 v 20 m 10 -20 v 20"></path></g></svg>